<?xml version="1.0" standalone="no"?>
<!DOCTYPE svg PUBLIC "-//W3C//DTD SVG 20010904//EN"
 "http://www.w3.org/TR/2001/REC-SVG-20010904/DTD/svg10.dtd">
<svg version="1.0" xmlns="http://www.w3.org/2000/svg"
 width="752.000000pt" height="752.000000pt" viewBox="0 0 752.000000 752.000000"
 preserveAspectRatio="xMidYMid meet">
<metadata>
Created by potrace 1.14, written by Peter Selinger 2001-2017
</metadata>
<g transform="translate(0.000000,752.000000) scale(0.100000,-0.100000)"
fill="#000000" stroke="none">
<path d="M2554 7489 c-142 -26 -251 -149 -283 -320 -8 -46 -6 -278 3 -354 6
-52 16 -124 22 -155 2 -14 7 -41 9 -60 3 -19 8 -46 11 -60 3 -14 8 -36 10 -50
3 -14 7 -34 9 -45 3 -11 7 -33 11 -50 3 -16 15 -68 26 -115 11 -47 20 -93 21
-102 1 -10 5 -18 10 -18 4 0 6 -4 3 -8 -3 -5 2 -33 10 -63 8 -30 17 -62 19
-72 8 -33 65 -251 86 -327 11 -41 25 -91 30 -110 5 -19 12 -43 14 -52 3 -10 7
-26 9 -35 6 -23 52 -182 71 -248 9 -27 17 -59 19 -71 2 -12 13 -52 25 -90 17
-58 65 -244 76 -294 2 -8 11 -46 20 -85 9 -38 18 -78 21 -88 2 -10 6 -27 9
-37 3 -9 7 -35 10 -56 2 -22 6 -54 10 -72 4 -23 2 -31 -5 -27 -10 6 -140 266
-140 279 0 3 -13 33 -29 68 -16 35 -53 117 -82 183 -106 238 -259 532 -402
770 -7 11 -15 22 -18 25 -3 3 -12 16 -19 30 -22 42 -171 240 -181 240 -5 0 -9
5 -9 11 0 17 -146 155 -208 197 -71 48 -115 68 -175 82 -153 34 -290 -39 -332
-178 -31 -104 -25 -271 16 -457 11 -49 22 -99 24 -109 9 -40 56 -202 65 -221
5 -11 18 -51 30 -90 12 -38 29 -85 37 -104 8 -18 16 -39 17 -45 1 -10 34 -98
58 -156 16 -39 24 -58 69 -170 23 -58 46 -109 51 -114 4 -6 8 -18 8 -28 0 -10
5 -18 10 -18 6 0 10 -9 10 -19 0 -11 5 -23 10 -26 6 -4 8 -11 5 -16 -4 -5 -1
-9 4 -9 6 0 10 -3 9 -7 -1 -5 8 -28 19 -53 58 -130 118 -259 179 -385 26 -55
48 -102 49 -105 0 -3 20 -45 43 -93 23 -49 42 -91 42 -94 0 -5 -47 44 -84 89
-29 34 -259 301 -271 314 -5 6 -39 44 -75 84 -150 168 -351 362 -491 474 -46
38 -142 97 -204 126 -53 25 -86 34 -134 36 -95 4 -128 -18 -195 -130 l-36 -60
0 -124 c0 -89 4 -131 14 -150 8 -15 27 -61 41 -102 42 -120 118 -277 144 -300
3 -3 11 -14 18 -25 7 -11 30 -50 52 -86 34 -56 139 -261 186 -364 51 -110 84
-186 132 -303 29 -73 59 -145 65 -160 6 -15 13 -36 15 -46 2 -11 7 -24 11 -30
8 -10 42 -97 49 -121 1 -5 23 -66 49 -135 40 -108 73 -201 185 -521 11 -31 22
-65 24 -75 4 -16 58 -172 78 -224 3 -8 15 -44 27 -80 12 -36 25 -74 30 -85 4
-11 13 -36 20 -55 7 -19 16 -44 21 -55 4 -11 19 -45 32 -75 50 -116 143 -294
207 -396 19 -30 131 -194 146 -214 82 -106 197 -233 299 -330 112 -107 162
-150 175 -150 6 0 10 -3 10 -8 0 -9 136 -112 149 -112 5 0 11 -4 13 -8 10 -25
343 -207 458 -251 178 -67 318 -106 465 -131 126 -21 175 -25 345 -25 176 0
245 6 365 28 17 4 44 8 60 11 17 3 60 14 98 25 37 11 69 20 72 21 103 20 492
208 553 267 8 7 23 18 34 24 23 12 102 71 122 91 7 7 28 24 47 38 37 27 266
253 314 310 72 85 165 212 165 225 0 2 13 26 29 54 16 27 27 52 24 55 -4 3 -2
6 4 6 6 0 13 8 16 18 3 9 18 49 32 87 27 71 54 156 60 184 2 9 9 39 15 66 16
66 23 106 24 128 0 9 3 17 6 17 3 0 5 10 6 23 1 21 4 43 24 182 5 33 12 87 15
120 3 33 8 83 12 110 3 28 7 64 9 80 2 17 6 53 9 80 2 28 7 61 10 75 3 14 7
43 10 65 2 22 6 51 9 64 3 12 7 42 10 65 3 22 12 77 21 121 9 44 18 96 21 115
3 19 21 112 40 205 19 94 37 181 40 195 3 14 11 50 19 80 8 30 17 70 20 89 3
19 8 37 10 41 2 3 6 17 9 31 40 200 196 692 289 909 6 14 11 27 11 31 2 9 141
284 147 289 3 3 22 39 44 80 21 41 51 100 68 130 16 30 52 98 80 150 28 52 59
109 69 125 25 41 25 131 1 139 -10 3 -34 21 -53 38 -82 75 -206 142 -305 164
-51 11 -217 13 -270 3 -27 -6 -61 -12 -75 -14 -61 -9 -196 -67 -275 -117 -50
-31 -127 -108 -167 -166 -16 -24 -54 -96 -84 -160 -30 -64 -59 -124 -65 -132
-5 -8 -12 -22 -15 -30 -14 -36 -39 -98 -54 -135 -63 -149 -119 -359 -135 -505
-5 -48 -17 -175 -20 -210 -2 -19 -6 -69 -9 -110 -4 -41 -9 -102 -12 -135 -2
-33 -7 -82 -10 -110 -3 -27 -7 -68 -9 -90 -2 -22 -5 -40 -5 -40 -2 0 -8 -25
-15 -69 -4 -22 -10 -49 -15 -60 -4 -12 -8 -23 -8 -26 0 -26 -75 -252 -107
-325 -8 -16 -22 -52 -33 -80 -11 -27 -32 -76 -46 -108 -14 -31 -25 -58 -24
-60 0 -1 -8 -20 -19 -42 -29 -56 -125 -284 -161 -380 -44 -116 -45 -119 -47
-131 -2 -10 -38 -128 -80 -264 -8 -25 -16 -56 -19 -70 -3 -14 -7 -34 -10 -45
-15 -55 -46 -187 -51 -216 -3 -18 -7 -35 -9 -38 -2 -3 -7 -24 -10 -46 -4 -22
-13 -64 -20 -95 -16 -67 -39 -171 -41 -185 0 -5 -7 -37 -14 -70 -7 -33 -14
-64 -15 -70 -1 -5 -5 -16 -9 -22 -5 -7 -6 -13 -3 -13 10 0 -36 -95 -57 -118
-39 -42 -75 -55 -136 -48 -71 7 -93 31 -112 117 -15 71 -18 363 -5 564 4 66 9
147 11 180 19 308 24 485 13 491 -4 3 -10 -10 -13 -28 -3 -18 -8 -42 -10 -53
-2 -11 -4 -20 -5 -20 -2 0 -4 -10 -13 -55 -4 -20 -43 -173 -82 -320 -28 -107
-52 -195 -81 -290 -19 -63 -37 -125 -39 -137 -11 -47 -128 -379 -165 -464 -84
-193 -140 -267 -219 -286 -53 -13 -77 -6 -114 32 -50 51 -72 129 -71 254 0
101 10 249 19 281 3 8 7 37 9 64 3 26 7 56 10 65 3 9 7 32 10 51 5 32 59 286
71 335 3 11 7 30 10 42 3 13 7 31 9 40 3 10 16 68 30 128 14 61 30 126 35 145
6 19 12 48 15 64 3 16 10 52 16 80 17 84 21 131 10 120 -11 -11 -288 -568
-309 -621 -8 -18 -17 -33 -22 -33 -5 0 -9 -7 -9 -15 0 -14 -73 -159 -92 -182
-6 -7 -7 -13 -3 -13 4 0 3 -6 -3 -13 -5 -6 -25 -41 -44 -77 -75 -140 -99 -182
-123 -220 -14 -22 -25 -42 -25 -45 0 -3 -5 -11 -10 -18 -6 -7 -34 -48 -63 -92
-117 -181 -215 -275 -300 -290 -58 -10 -89 1 -117 42 -22 32 -25 48 -26 125
-1 106 8 165 46 278 26 80 39 113 77 200 9 19 21 49 28 65 7 17 25 56 39 88
14 32 26 59 26 62 0 4 89 203 137 305 14 30 36 78 49 106 12 29 41 91 64 139
22 48 43 98 46 111 3 13 10 24 15 24 5 0 9 4 9 10 0 5 20 53 45 106 25 53 45
101 45 107 0 18 -60 -50 -120 -138 -30 -44 -59 -85 -65 -92 -5 -6 -25 -33 -43
-60 -33 -48 -246 -347 -278 -391 -10 -12 -27 -33 -38 -46 -12 -13 -46 -52 -76
-86 -69 -79 -157 -168 -206 -206 -20 -16 -42 -33 -48 -39 -47 -40 -145 -86
-196 -91 -42 -4 -52 -1 -74 21 -14 14 -26 31 -27 38 -7 73 2 137 29 222 14 45
82 194 112 245 15 25 71 120 124 212 54 93 102 170 107 174 5 3 9 14 9 25 0
10 4 19 8 19 4 0 15 12 24 28 53 88 160 154 378 230 155 55 237 77 320 88 67
8 505 3 505 -6 0 -1 75 -8 170 -15 44 -3 98 -7 120 -10 22 -2 69 -7 105 -10
36 -3 74 -8 85 -10 11 -3 31 -7 45 -9 14 -2 54 -11 90 -20 138 -33 210 -14
210 57 0 66 -70 161 -146 197 -39 19 -118 36 -204 45 -48 5 -122 28 -123 39
-1 5 59 40 133 79 651 334 724 378 736 443 5 27 2 42 -13 62 -32 43 -61 44
-170 5 -54 -19 -105 -36 -113 -38 -8 -2 -16 -4 -17 -5 -2 -2 -6 -3 -10 -5 -5
-1 -15 -4 -23 -8 -39 -15 -131 -37 -157 -37 -35 0 -44 7 -36 26 6 15 154 101
275 160 40 19 80 39 88 44 8 5 50 26 93 47 136 66 191 140 141 190 -37 37
-107 35 -236 -5 -127 -41 -339 -121 -357 -135 -8 -7 -15 -11 -15 -9 -1 4 -44
-12 -129 -49 -38 -17 -71 -28 -73 -26 -3 2 28 29 68 58 40 29 75 56 78 59 4 5
92 69 160 117 13 10 32 26 42 36 10 9 21 17 26 17 11 1 65 52 95 92 16 21 27
48 27 67 0 26 -5 34 -31 45 -44 18 -99 9 -171 -30 -16 -8 -28 -12 -28 -8 0 3
-6 2 -12 -4 -7 -5 -35 -22 -63 -37 -52 -29 -164 -93 -193 -110 -51 -31 -108
-69 -112 -75 -11 -15 -39 -18 -50 -5 -15 19 -6 46 28 78 150 143 183 178 201
213 26 50 20 93 -13 95 -45 3 -83 -2 -120 -17 -55 -22 -214 -130 -291 -199
-13 -12 -38 -32 -55 -45 -18 -14 -42 -33 -54 -43 -42 -36 -148 -124 -189 -157
-11 -8 -24 -20 -31 -25 -6 -6 -42 -35 -81 -65 -38 -30 -77 -60 -85 -67 -34
-28 -89 -69 -110 -83 -12 -8 -28 -19 -34 -25 -76 -68 -385 -231 -493 -262 -7
-1 -19 -5 -25 -6 -7 -2 -20 -7 -28 -10 -36 -15 -169 -33 -188 -26 -12 5 -24 4
-27 -2 -4 -5 -10 -7 -15 -4 -5 3 -30 8 -57 10 -26 3 -77 20 -112 38 -104 53
-134 136 -83 234 25 47 122 149 152 158 11 3 20 10 20 14 0 4 74 45 165 90
224 112 273 151 457 365 100 117 221 222 348 303 89 57 302 164 332 167 3 1
10 4 14 9 4 4 16 7 26 7 10 0 18 5 18 10 0 6 3 9 8 8 4 0 14 2 22 5 36 14 196
69 209 71 8 2 17 8 19 14 3 10 -27 108 -48 157 -5 11 -23 56 -40 100 -18 44
-36 89 -40 100 -19 45 -199 567 -205 596 -3 16 -81 251 -92 279 -3 8 -7 20 -8
25 -5 20 -106 320 -115 340 -5 11 -23 61 -40 110 -30 84 -75 200 -105 270 -53
125 -76 174 -127 274 -33 63 -72 133 -89 157 -16 23 -29 47 -29 52 0 6 -3 12
-7 14 -5 2 -27 29 -50 60 -41 54 -158 178 -169 178 -3 0 -14 8 -25 19 -58 53
-152 77 -245 60z"/>
</g>
</svg>
