<svg width="278" height="87" viewBox="0 0 278 87" fill="none" xmlns="http://www.w3.org/2000/svg">
<path d="M84.4957 52.2102V35.5993H89.0053V42.0879H94.9748V35.5993H99.4844V52.2102H94.9748V45.7216H89.0053V52.2102H84.4957ZM107.311 52.2102H102.445L107.927 35.5993H114.092L119.575 52.2102H114.708L111.074 40.1738H110.945L107.311 52.2102ZM106.403 45.6567H115.552V49.0308H106.403V45.6567ZM134.986 52.4373C133.678 52.4373 132.515 52.2129 131.499 51.7641C130.488 51.3099 129.693 50.6854 129.114 49.8905C128.536 49.0957 128.244 48.1818 128.238 47.1491H132.78C132.786 47.4681 132.883 47.7547 133.072 48.0088C133.267 48.2575 133.532 48.4522 133.867 48.5928C134.202 48.7334 134.586 48.8037 135.019 48.8037C135.435 48.8037 135.803 48.7307 136.122 48.5847C136.441 48.4333 136.69 48.2251 136.868 47.9601C137.047 47.6952 137.133 47.3924 137.128 47.0517C137.133 46.7165 137.03 46.4191 136.819 46.1596C136.614 45.9 136.325 45.6972 135.952 45.5512C135.579 45.4052 135.149 45.3323 134.662 45.3323H132.975V42.2177H134.662C135.111 42.2177 135.506 42.1447 135.846 41.9987C136.192 41.8527 136.46 41.6499 136.649 41.3904C136.844 41.1309 136.938 40.8335 136.933 40.4982C136.938 40.1738 136.86 39.8872 136.698 39.6385C136.536 39.3897 136.308 39.1951 136.017 39.0545C135.73 38.9139 135.397 38.8436 135.019 38.8436C134.608 38.8436 134.24 38.9166 133.916 39.0626C133.597 39.2086 133.345 39.4114 133.162 39.6709C132.978 39.9305 132.883 40.2279 132.878 40.5631H128.563C128.568 39.5465 128.847 38.649 129.398 37.8703C129.955 37.0917 130.717 36.4807 131.685 36.0373C132.653 35.5939 133.764 35.3722 135.019 35.3722C136.246 35.3722 137.33 35.5804 138.271 35.9967C139.218 36.4131 139.956 36.9862 140.486 37.7162C141.021 38.4408 141.286 39.2708 141.28 40.2062C141.291 41.1363 140.972 41.8987 140.323 42.4935C139.68 43.0883 138.863 43.4397 137.874 43.5479V43.6776C139.215 43.8236 140.223 44.2346 140.899 44.9105C141.575 45.581 141.908 46.4245 141.897 47.4411C141.902 48.4144 141.61 49.2768 141.021 50.0284C140.437 50.78 139.623 51.3694 138.58 51.7966C137.541 52.2237 136.344 52.4373 134.986 52.4373ZM144.697 56.2007V48.7388H145.865C146.254 48.5009 146.605 48.1656 146.919 47.733C147.238 47.3005 147.508 46.6813 147.73 45.8757C147.957 45.07 148.125 43.9913 148.233 42.6395L148.785 35.5993H160.529V48.7388H162.281V56.2007H157.934V52.2102H149.044V56.2007H144.697ZM151.023 48.7388H156.182V39.2329H152.84L152.58 42.6395C152.505 43.656 152.388 44.5455 152.232 45.3079C152.08 46.0649 151.899 46.7246 151.688 47.287C151.483 47.8439 151.261 48.3278 151.023 48.7388ZM181.268 43.9048C181.268 45.754 180.908 47.314 180.189 48.5847C179.47 49.85 178.5 50.8097 177.278 51.464C176.055 52.1129 174.693 52.4373 173.19 52.4373C171.676 52.4373 170.308 52.1102 169.086 51.4559C167.869 50.7962 166.901 49.8337 166.182 48.5685C165.468 47.2978 165.111 45.7432 165.111 43.9048C165.111 42.0555 165.468 40.4982 166.182 39.2329C166.901 37.9622 167.869 37.0025 169.086 36.3536C170.308 35.6993 171.676 35.3722 173.19 35.3722C174.693 35.3722 176.055 35.6993 177.278 36.3536C178.5 37.0025 179.47 37.9622 180.189 39.2329C180.908 40.4982 181.268 42.0555 181.268 43.9048ZM176.629 43.9048C176.629 42.9098 176.496 42.0717 176.231 41.3904C175.972 40.7037 175.585 40.1846 175.071 39.8331C174.563 39.4763 173.936 39.2978 173.19 39.2978C172.443 39.2978 171.814 39.4763 171.3 39.8331C170.792 40.1846 170.405 40.7037 170.14 41.3904C169.88 42.0717 169.751 42.9098 169.751 43.9048C169.751 44.8997 169.88 45.7405 170.14 46.4272C170.405 47.1085 170.792 47.6276 171.3 47.9845C171.814 48.3359 172.443 48.5117 173.19 48.5117C173.936 48.5117 174.563 48.3359 175.071 47.9845C175.585 47.6276 175.972 47.1085 176.231 46.4272C176.496 45.7405 176.629 44.8997 176.629 43.9048ZM184.725 52.2102V35.5993H191.895C193.128 35.5993 194.206 35.8426 195.131 36.3293C196.056 36.8159 196.775 37.4999 197.289 38.3813C197.802 39.2627 198.059 40.2927 198.059 41.4715C198.059 42.6611 197.794 43.6912 197.264 44.5617C196.74 45.4323 196.002 46.1028 195.05 46.5732C194.104 47.0436 192.998 47.2788 191.733 47.2788H187.45V43.775H190.824C191.354 43.775 191.806 43.6831 192.179 43.4992C192.557 43.31 192.847 43.0423 193.047 42.6962C193.252 42.3502 193.355 41.9419 193.355 41.4715C193.355 40.9957 193.252 40.5901 193.047 40.2549C192.847 39.9142 192.557 39.6547 192.179 39.4763C191.806 39.2924 191.354 39.2005 190.824 39.2005H189.235V52.2102H184.725ZM217.176 43.9048C217.176 45.754 216.816 47.314 216.097 48.5847C215.378 49.85 214.407 50.8097 213.185 51.464C211.963 52.1129 210.601 52.4373 209.098 52.4373C207.584 52.4373 206.215 52.1102 204.993 51.4559C203.777 50.7962 202.809 49.8337 202.09 48.5685C201.376 47.2978 201.019 45.7432 201.019 43.9048C201.019 42.0555 201.376 40.4982 202.09 39.2329C202.809 37.9622 203.777 37.0025 204.993 36.3536C206.215 35.6993 207.584 35.3722 209.098 35.3722C210.601 35.3722 211.963 35.6993 213.185 36.3536C214.407 37.0025 215.378 37.9622 216.097 39.2329C216.816 40.4982 217.176 42.0555 217.176 43.9048ZM212.537 43.9048C212.537 42.9098 212.404 42.0717 212.139 41.3904C211.88 40.7037 211.493 40.1846 210.979 39.8331C210.471 39.4763 209.844 39.2978 209.098 39.2978C208.351 39.2978 207.721 39.4763 207.208 39.8331C206.699 40.1846 206.313 40.7037 206.048 41.3904C205.788 42.0717 205.659 42.9098 205.659 43.9048C205.659 44.8997 205.788 45.7405 206.048 46.4272C206.313 47.1085 206.699 47.6276 207.208 47.9845C207.721 48.3359 208.351 48.5117 209.098 48.5117C209.844 48.5117 210.471 48.3359 210.979 47.9845C211.493 47.6276 211.88 47.1085 212.139 46.4272C212.404 45.7405 212.537 44.8997 212.537 43.9048ZM220.633 52.2102V35.5993H227.835C229.1 35.5993 230.163 35.7696 231.023 36.1103C231.888 36.4509 232.539 36.9322 232.977 37.554C233.421 38.1758 233.642 38.9085 233.642 39.752C233.642 40.363 233.507 40.92 233.237 41.4228C232.972 41.9257 232.599 42.3475 232.118 42.6881C231.636 43.0234 231.074 43.2559 230.431 43.3857V43.5479C231.144 43.5749 231.793 43.7561 232.377 44.0913C232.961 44.4211 233.426 44.878 233.772 45.462C234.118 46.0406 234.291 46.7219 234.291 47.5059C234.291 48.4144 234.053 49.2227 233.578 49.9311C233.107 50.6394 232.437 51.1964 231.566 51.6019C230.696 52.0074 229.657 52.2102 228.452 52.2102H220.633ZM225.142 48.609H227.251C228.008 48.609 228.576 48.4684 228.954 48.1873C229.333 47.9007 229.522 47.4789 229.522 46.922C229.522 46.5326 229.433 46.2028 229.255 45.9324C229.076 45.6621 228.822 45.4566 228.492 45.316C228.168 45.1754 227.776 45.1051 227.316 45.1051H225.142V48.609ZM225.142 42.315H226.992C227.386 42.315 227.735 42.2529 228.038 42.1285C228.341 42.0041 228.576 41.8257 228.744 41.5932C228.917 41.3553 229.003 41.066 229.003 40.7253C229.003 40.2116 228.819 39.8196 228.452 39.5493C228.084 39.2735 227.619 39.1356 227.057 39.1356H225.142V42.315ZM240.115 41.1795H243.554C244.954 41.1795 246.176 41.4039 247.22 41.8527C248.269 42.3015 249.082 42.9342 249.661 43.7506C250.245 44.5671 250.534 45.5269 250.529 46.63C250.534 47.733 250.245 48.7036 249.661 49.5418C249.082 50.3799 248.269 51.0341 247.22 51.5046C246.176 51.975 244.954 52.2102 243.554 52.2102H237.357V35.5993H241.867V48.6739H243.554C244.1 48.6739 244.557 48.5847 244.924 48.4062C245.297 48.2278 245.579 47.9818 245.768 47.6682C245.962 47.3545 246.057 46.9977 246.052 46.5975C246.057 46.0298 245.846 45.5594 245.419 45.1863C244.992 44.8078 244.37 44.6185 243.554 44.6185H240.115V41.1795ZM254.466 52.2102V35.5993H266.438V39.2329H258.976V42.0879H265.821V45.7216H258.976V48.5766H266.405V52.2102H254.466ZM275.301 35.5993L274.879 47.0193H271.18L270.759 35.5993H275.301ZM273.03 52.4698C272.402 52.4698 271.864 52.2508 271.416 51.8128C270.972 51.3694 270.753 50.8314 270.759 50.1987C270.753 49.5823 270.972 49.0551 271.416 48.6171C271.864 48.1791 272.402 47.9601 273.03 47.9601C273.624 47.9601 274.149 48.1791 274.603 48.6171C275.063 49.0551 275.295 49.5823 275.301 50.1987C275.295 50.6205 275.184 51.0044 274.968 51.3505C274.757 51.6911 274.481 51.9642 274.141 52.1697C273.8 52.3697 273.43 52.4698 273.03 52.4698Z" fill="#292929"/>
<path d="M84.2895 66.4542V60.307H89.124V66.4542H88.1795V61.1875H85.234V66.4542H84.2895ZM93.797 66.5823C93.2421 66.5823 92.7551 66.4502 92.3363 66.1861C91.92 65.9219 91.5945 65.5524 91.3597 65.0775C91.1276 64.6026 91.0116 64.0476 91.0116 63.4126C91.0116 62.7723 91.1276 62.2133 91.3597 61.7358C91.5945 61.2582 91.92 60.8873 92.3363 60.6232C92.7551 60.359 93.2421 60.227 93.797 60.227C94.352 60.227 94.8376 60.359 95.2538 60.6232C95.6727 60.8873 95.9982 61.2582 96.2303 61.7358C96.4651 62.2133 96.5825 62.7723 96.5825 63.4126C96.5825 64.0476 96.4651 64.6026 96.2303 65.0775C95.9982 65.5524 95.6727 65.9219 95.2538 66.1861C94.8376 66.4502 94.352 66.5823 93.797 66.5823ZM93.797 65.7338C94.2186 65.7338 94.5654 65.6258 94.8376 65.4097C95.1097 65.1936 95.3111 64.9094 95.4419 64.5572C95.5726 64.2051 95.638 63.8235 95.638 63.4126C95.638 63.0018 95.5726 62.6189 95.4419 62.264C95.3111 61.9092 95.1097 61.6224 94.8376 61.4036C94.5654 61.1848 94.2186 61.0754 93.797 61.0754C93.3755 61.0754 93.0286 61.1848 92.7565 61.4036C92.4843 61.6224 92.2829 61.9092 92.1522 62.264C92.0214 62.6189 91.9561 63.0018 91.9561 63.4126C91.9561 63.8235 92.0214 64.2051 92.1522 64.5572C92.2829 64.9094 92.4843 65.1936 92.7565 65.4097C93.0286 65.6258 93.3755 65.7338 93.797 65.7338ZM97.8187 68.2151V65.5738H98.3309C98.4563 65.443 98.5644 65.3016 98.6551 65.1495C98.7458 64.9975 98.8245 64.8174 98.8912 64.6093C98.9606 64.3985 99.0193 64.1424 99.0673 63.8409C99.1154 63.5367 99.158 63.1698 99.1954 62.7403L99.4035 60.307H103.31V65.5738H104.254V68.2151H103.31V66.4542H98.7632V68.2151H97.8187ZM99.4035 65.5738H102.365V61.1875H100.284L100.124 62.7403C100.057 63.3833 99.9745 63.9449 99.8758 64.4252C99.777 64.9054 99.6196 65.2883 99.4035 65.5738ZM105.302 68.2151V65.5738H105.814C105.94 65.443 106.048 65.3016 106.139 65.1495C106.229 64.9975 106.308 64.8174 106.375 64.6093C106.444 64.3985 106.503 64.1424 106.551 63.8409C106.599 63.5367 106.642 63.1698 106.679 62.7403L106.887 60.307H110.793V65.5738H111.737V68.2151H110.793V66.4542H106.247V68.2151H105.302ZM106.887 65.5738H109.849V61.1875H107.767L107.607 62.7403C107.541 63.3833 107.458 63.9449 107.359 64.4252C107.26 64.9054 107.103 65.2883 106.887 65.5738ZM116.019 66.5823C115.427 66.5823 114.916 66.4516 114.486 66.1901C114.06 65.9259 113.73 65.5578 113.498 65.0855C113.269 64.6106 113.154 64.0583 113.154 63.4286C113.154 62.799 113.269 62.244 113.498 61.7638C113.73 61.2809 114.053 60.9047 114.466 60.6352C114.883 60.363 115.368 60.227 115.923 60.227C116.243 60.227 116.56 60.2803 116.872 60.3871C117.184 60.4938 117.468 60.6672 117.724 60.9073C117.98 61.1448 118.184 61.4596 118.337 61.8518C118.489 62.244 118.565 62.7269 118.565 63.3006V63.7008H113.826V62.8844H117.604C117.604 62.5375 117.535 62.228 117.396 61.9559C117.26 61.6837 117.065 61.469 116.812 61.3115C116.561 61.1541 116.265 61.0754 115.923 61.0754C115.547 61.0754 115.222 61.1688 114.947 61.3556C114.675 61.5397 114.465 61.7798 114.318 62.0759C114.172 62.3721 114.098 62.6896 114.098 63.0284V63.5727C114.098 64.037 114.178 64.4305 114.338 64.7533C114.501 65.0735 114.727 65.3176 115.015 65.4857C115.303 65.6511 115.638 65.7338 116.019 65.7338C116.267 65.7338 116.492 65.6992 116.692 65.6298C116.894 65.5578 117.069 65.451 117.216 65.3096C117.363 65.1656 117.476 64.9868 117.556 64.7733L118.469 65.0295C118.373 65.339 118.211 65.6111 117.984 65.8459C117.758 66.078 117.477 66.2595 117.144 66.3902C116.81 66.5183 116.436 66.5823 116.019 66.5823ZM120.452 68.7594V60.307H121.365V61.2835H121.477C121.546 61.1768 121.642 61.0407 121.765 60.8753C121.89 60.7072 122.069 60.5578 122.301 60.4271C122.536 60.2937 122.853 60.227 123.254 60.227C123.771 60.227 124.227 60.3564 124.622 60.6152C125.017 60.874 125.325 61.2408 125.547 61.7158C125.768 62.1907 125.879 62.751 125.879 63.3966C125.879 64.0476 125.768 64.6119 125.547 65.0895C125.325 65.5644 125.019 65.9326 124.626 66.1941C124.234 66.4529 123.782 66.5823 123.27 66.5823C122.875 66.5823 122.559 66.5169 122.321 66.3862C122.084 66.2528 121.901 66.102 121.773 65.934C121.645 65.7632 121.546 65.6218 121.477 65.5097H121.397V68.7594H120.452ZM121.381 63.3806C121.381 63.8449 121.449 64.2544 121.585 64.6093C121.721 64.9614 121.92 65.2376 122.181 65.4377C122.443 65.6351 122.763 65.7338 123.142 65.7338C123.536 65.7338 123.866 65.6298 124.13 65.4217C124.397 65.2109 124.597 64.9281 124.73 64.5732C124.866 64.2157 124.935 63.8182 124.935 63.3806C124.935 62.9484 124.868 62.5589 124.734 62.212C124.604 61.8625 124.405 61.5864 124.138 61.3836C123.874 61.1781 123.542 61.0754 123.142 61.0754C122.757 61.0754 122.435 61.1728 122.173 61.3676C121.912 61.5597 121.714 61.8291 121.581 62.176C121.447 62.5202 121.381 62.9217 121.381 63.3806ZM127.133 66.4542L129.631 63.3326L127.165 60.307H128.286L130.335 62.9324H130.847V60.307H131.792V62.9324H132.288L134.337 60.307H135.458L133.008 63.3326L135.49 66.4542H134.353L132.272 63.8128H131.792V66.4542H130.847V63.8128H130.367L128.27 66.4542H127.133ZM137.29 66.4542V60.307H138.235V62.9804H138.859L141.068 60.307H142.285L139.803 63.2686L142.317 66.4542H141.1L139.083 63.8609H138.235V66.4542H137.29ZM145.603 66.5983C145.213 66.5983 144.86 66.5249 144.542 66.3782C144.225 66.2288 143.973 66.014 143.786 65.7338C143.599 65.451 143.506 65.1095 143.506 64.7093C143.506 64.3571 143.575 64.0716 143.714 63.8529C143.853 63.6314 144.038 63.458 144.27 63.3326C144.502 63.2072 144.759 63.1138 145.039 63.0524C145.321 62.9884 145.606 62.9377 145.891 62.9004C146.265 62.8523 146.567 62.8163 146.8 62.7923C147.034 62.7656 147.205 62.7216 147.312 62.6602C147.421 62.5989 147.476 62.4922 147.476 62.3401V62.3081C147.476 61.9132 147.368 61.6064 147.152 61.3876C146.938 61.1688 146.614 61.0594 146.179 61.0594C145.728 61.0594 145.375 61.1581 145.119 61.3556C144.863 61.553 144.682 61.7638 144.578 61.9879L143.682 61.6677C143.842 61.2942 144.055 61.0034 144.322 60.7953C144.592 60.5845 144.885 60.4378 145.203 60.355C145.523 60.2697 145.838 60.227 146.147 60.227C146.345 60.227 146.571 60.251 146.828 60.299C147.086 60.3444 147.336 60.4391 147.576 60.5832C147.819 60.7272 148.02 60.9447 148.18 61.2355C148.34 61.5263 148.42 61.9159 148.42 62.4041V66.4542H147.476V65.6218H147.428C147.364 65.7552 147.257 65.8979 147.108 66.05C146.958 66.2021 146.76 66.3315 146.511 66.4382C146.263 66.5449 145.96 66.5983 145.603 66.5983ZM145.747 65.7499C146.121 65.7499 146.435 65.6765 146.692 65.5297C146.95 65.383 147.145 65.1936 147.276 64.9614C147.409 64.7293 147.476 64.4852 147.476 64.2291V63.3646C147.436 63.4126 147.348 63.4567 147.212 63.4967C147.078 63.534 146.924 63.5674 146.748 63.5967C146.574 63.6234 146.405 63.6474 146.239 63.6688C146.077 63.6874 145.944 63.7035 145.843 63.7168C145.598 63.7488 145.368 63.8008 145.155 63.8729C144.944 63.9422 144.773 64.0476 144.642 64.189C144.514 64.3278 144.45 64.5172 144.45 64.7573C144.45 65.0855 144.572 65.3336 144.815 65.5017C145.06 65.6671 145.371 65.7499 145.747 65.7499ZM153.559 68.2151V65.5738H154.072C154.197 65.443 154.305 65.3016 154.396 65.1495C154.486 64.9975 154.565 64.8174 154.632 64.6093C154.701 64.3985 154.76 64.1424 154.808 63.8409C154.856 63.5367 154.899 63.1698 154.936 62.7403L155.144 60.307H159.05V65.5738H159.995V68.2151H159.05V66.4542H154.504V68.2151H153.559ZM155.144 65.5738H158.106V61.1875H156.025L155.864 62.7403C155.798 63.3833 155.715 63.9449 155.616 64.4252C155.518 64.9054 155.36 65.2883 155.144 65.5738ZM161.155 66.4542V65.5738H161.379C161.563 65.5738 161.716 65.5377 161.839 65.4657C161.962 65.391 162.061 65.2616 162.135 65.0775C162.213 64.8907 162.271 64.6319 162.311 64.3011C162.354 63.9676 162.385 63.5434 162.403 63.0284L162.515 60.307H166.614V66.4542H165.669V61.1875H163.412L163.316 63.3806C163.295 63.8849 163.249 64.3291 163.18 64.7133C163.113 65.0948 163.01 65.415 162.872 65.6738C162.736 65.9326 162.554 66.1274 162.327 66.2581C162.101 66.3889 161.816 66.4542 161.475 66.4542H161.155ZM172.495 66.4542V61.1715H170.862C170.494 61.1715 170.205 61.2568 169.994 61.4276C169.783 61.5984 169.678 61.8331 169.678 62.132C169.678 62.4255 169.772 62.6562 169.962 62.8243C170.154 62.9924 170.417 63.0765 170.75 63.0765H172.735V63.9569H170.75C170.334 63.9569 169.975 63.8835 169.674 63.7368C169.372 63.5901 169.14 63.3806 168.977 63.1085C168.815 62.8337 168.733 62.5082 168.733 62.132C168.733 61.7531 168.819 61.4276 168.989 61.1555C169.16 60.8833 169.404 60.6739 169.722 60.5271C170.042 60.3804 170.422 60.307 170.862 60.307H173.392V66.4542H172.495ZM168.397 66.4542L170.142 63.3966H171.167L169.422 66.4542H168.397ZM178.541 68.2151V65.5738H179.053C179.178 65.443 179.286 65.3016 179.377 65.1495C179.468 64.9975 179.546 64.8174 179.613 64.6093C179.682 64.3985 179.741 64.1424 179.789 63.8409C179.837 63.5367 179.88 63.1698 179.917 62.7403L180.125 60.307H184.031V65.5738H184.976V68.2151H184.031V66.4542H179.485V68.2151H178.541ZM180.125 65.5738H183.087V61.1875H181.006L180.846 62.7403C180.779 63.3833 180.696 63.9449 180.598 64.4252C180.499 64.9054 180.341 65.2883 180.125 65.5738ZM189.258 66.5823C188.665 66.5823 188.154 66.4516 187.725 66.1901C187.298 65.9259 186.968 65.5578 186.736 65.0855C186.507 64.6106 186.392 64.0583 186.392 63.4286C186.392 62.799 186.507 62.244 186.736 61.7638C186.968 61.2809 187.291 60.9047 187.705 60.6352C188.121 60.363 188.607 60.227 189.162 60.227C189.482 60.227 189.798 60.2803 190.11 60.3871C190.422 60.4938 190.706 60.6672 190.963 60.9073C191.219 61.1448 191.423 61.4596 191.575 61.8518C191.727 62.244 191.803 62.7269 191.803 63.3006V63.7008H187.065V62.8844H190.842C190.842 62.5375 190.773 62.228 190.634 61.9559C190.498 61.6837 190.304 61.469 190.05 61.3115C189.799 61.1541 189.503 61.0754 189.162 61.0754C188.785 61.0754 188.46 61.1688 188.185 61.3556C187.913 61.5397 187.704 61.7798 187.557 62.0759C187.41 62.3721 187.337 62.6896 187.337 63.0284V63.5727C187.337 64.037 187.417 64.4305 187.577 64.7533C187.74 65.0735 187.965 65.3176 188.253 65.4857C188.541 65.6511 188.876 65.7338 189.258 65.7338C189.506 65.7338 189.73 65.6992 189.93 65.6298C190.133 65.5578 190.308 65.451 190.454 65.3096C190.601 65.1656 190.714 64.9868 190.794 64.7733L191.707 65.0295C191.611 65.339 191.449 65.6111 191.223 65.8459C190.996 66.078 190.716 66.2595 190.382 66.3902C190.049 66.5183 189.674 66.5823 189.258 66.5823ZM193.118 61.1875V60.307H198.113V61.1875H196.096V66.4542H195.151V61.1875H193.118ZM202.2 66.5823C201.607 66.5823 201.096 66.4516 200.667 66.1901C200.24 65.9259 199.91 65.5578 199.678 65.0855C199.449 64.6106 199.334 64.0583 199.334 63.4286C199.334 62.799 199.449 62.244 199.678 61.7638C199.91 61.2809 200.233 60.9047 200.647 60.6352C201.063 60.363 201.549 60.227 202.103 60.227C202.424 60.227 202.74 60.2803 203.052 60.3871C203.364 60.4938 203.648 60.6672 203.904 60.9073C204.161 61.1448 204.365 61.4596 204.517 61.8518C204.669 62.244 204.745 62.7269 204.745 63.3006V63.7008H200.006V62.8844H203.784C203.784 62.5375 203.715 62.228 203.576 61.9559C203.44 61.6837 203.245 61.469 202.992 61.3115C202.741 61.1541 202.445 61.0754 202.103 61.0754C201.727 61.0754 201.402 61.1688 201.127 61.3556C200.855 61.5397 200.645 61.7798 200.499 62.0759C200.352 62.3721 200.279 62.6896 200.279 63.0284V63.5727C200.279 64.037 200.359 64.4305 200.519 64.7533C200.681 65.0735 200.907 65.3176 201.195 65.4857C201.483 65.6511 201.818 65.7338 202.2 65.7338C202.448 65.7338 202.672 65.6992 202.872 65.6298C203.075 65.5578 203.249 65.451 203.396 65.3096C203.543 65.1656 203.656 64.9868 203.736 64.7733L204.649 65.0295C204.553 65.339 204.391 65.6111 204.165 65.8459C203.938 66.078 203.658 66.2595 203.324 66.3902C202.991 66.5183 202.616 66.5823 202.2 66.5823ZM207.577 65.0615L210.538 60.307H211.627V66.4542H210.683V61.6997L207.737 66.4542H206.632V60.307H207.577V65.0615ZM209.914 58.2579H210.795C210.795 58.6902 210.645 59.0437 210.346 59.3185C210.048 59.5933 209.642 59.7307 209.13 59.7307C208.625 59.7307 208.224 59.5933 207.925 59.3185C207.629 59.0437 207.481 58.6902 207.481 58.2579H208.361C208.361 58.4661 208.419 58.6488 208.533 58.8062C208.651 58.9636 208.85 59.0424 209.13 59.0424C209.41 59.0424 209.61 58.9636 209.73 58.8062C209.853 58.6488 209.914 58.4661 209.914 58.2579ZM218.373 65.0615L221.334 60.307H222.423V66.4542H221.478V61.6997L218.533 66.4542H217.428V60.307H218.373V65.0615ZM228.224 68.7594V60.307H229.136V61.2835H229.248C229.318 61.1768 229.414 61.0407 229.537 60.8753C229.662 60.7072 229.841 60.5578 230.073 60.4271C230.308 60.2937 230.625 60.227 231.025 60.227C231.543 60.227 231.999 60.3564 232.394 60.6152C232.789 60.874 233.097 61.2408 233.319 61.7158C233.54 62.1907 233.651 62.751 233.651 63.3966C233.651 64.0476 233.54 64.6119 233.319 65.0895C233.097 65.5644 232.79 65.9326 232.398 66.1941C232.006 66.4529 231.554 66.5823 231.041 66.5823C230.647 66.5823 230.33 66.5169 230.093 66.3862C229.855 66.2528 229.673 66.102 229.545 65.934C229.417 65.7632 229.318 65.6218 229.248 65.5097H229.168V68.7594H228.224ZM229.152 63.3806C229.152 63.8449 229.22 64.2544 229.357 64.6093C229.493 64.9614 229.691 65.2376 229.953 65.4377C230.214 65.6351 230.534 65.7338 230.913 65.7338C231.308 65.7338 231.638 65.6298 231.902 65.4217C232.169 65.2109 232.369 64.9281 232.502 64.5732C232.638 64.2157 232.706 63.8182 232.706 63.3806C232.706 62.9484 232.64 62.5589 232.506 62.212C232.375 61.8625 232.177 61.5864 231.91 61.3836C231.646 61.1781 231.314 61.0754 230.913 61.0754C230.529 61.0754 230.206 61.1728 229.945 61.3676C229.683 61.5597 229.486 61.8291 229.353 62.176C229.219 62.5202 229.152 62.9217 229.152 63.3806ZM238.04 66.5823C237.485 66.5823 236.998 66.4502 236.579 66.1861C236.163 65.9219 235.837 65.5524 235.602 65.0775C235.37 64.6026 235.254 64.0476 235.254 63.4126C235.254 62.7723 235.37 62.2133 235.602 61.7358C235.837 61.2582 236.163 60.8873 236.579 60.6232C236.998 60.359 237.485 60.227 238.04 60.227C238.595 60.227 239.08 60.359 239.496 60.6232C239.915 60.8873 240.241 61.2582 240.473 61.7358C240.708 62.2133 240.825 62.7723 240.825 63.4126C240.825 64.0476 240.708 64.6026 240.473 65.0775C240.241 65.5524 239.915 65.9219 239.496 66.1861C239.08 66.4502 238.595 66.5823 238.04 66.5823ZM238.04 65.7338C238.461 65.7338 238.808 65.6258 239.08 65.4097C239.352 65.1936 239.554 64.9094 239.684 64.5572C239.815 64.2051 239.881 63.8235 239.881 63.4126C239.881 63.0018 239.815 62.6189 239.684 62.264C239.554 61.9092 239.352 61.6224 239.08 61.4036C238.808 61.1848 238.461 61.0754 238.04 61.0754C237.618 61.0754 237.271 61.1848 236.999 61.4036C236.727 61.6224 236.525 61.9092 236.395 62.264C236.264 62.6189 236.199 63.0018 236.199 63.4126C236.199 63.8235 236.264 64.2051 236.395 64.5572C236.525 64.9094 236.727 65.1936 236.999 65.4097C237.271 65.6258 237.618 65.7338 238.04 65.7338ZM242.061 68.2151V65.5738H242.574C242.699 65.443 242.807 65.3016 242.898 65.1495C242.988 64.9975 243.067 64.8174 243.134 64.6093C243.203 64.3985 243.262 64.1424 243.31 63.8409C243.358 63.5367 243.401 63.1698 243.438 62.7403L243.646 60.307H247.552V65.5738H248.497V68.2151H247.552V66.4542H243.006V68.2151H242.061ZM243.646 65.5738H246.608V61.1875H244.527L244.366 62.7403C244.3 63.3833 244.217 63.9449 244.118 64.4252C244.02 64.9054 243.862 65.2883 243.646 65.5738ZM251.146 65.0615L254.107 60.307H255.196V66.4542H254.251V61.6997L251.306 66.4542H250.201V60.307H251.146V65.0615ZM256.54 61.1875V60.307H261.535V61.1875H259.517V66.4542H258.573V61.1875H256.54ZM265.621 66.5823C265.029 66.5823 264.518 66.4516 264.088 66.1901C263.662 65.9259 263.332 65.5578 263.1 65.0855C262.87 64.6106 262.756 64.0583 262.756 63.4286C262.756 62.799 262.87 62.244 263.1 61.7638C263.332 61.2809 263.655 60.9047 264.068 60.6352C264.485 60.363 264.97 60.227 265.525 60.227C265.845 60.227 266.162 60.2803 266.474 60.3871C266.786 60.4938 267.07 60.6672 267.326 60.9073C267.582 61.1448 267.786 61.4596 267.938 61.8518C268.091 62.244 268.167 62.7269 268.167 63.3006V63.7008H263.428V62.8844H267.206C267.206 62.5375 267.137 62.228 266.998 61.9559C266.862 61.6837 266.667 61.469 266.414 61.3115C266.163 61.1541 265.867 61.0754 265.525 61.0754C265.149 61.0754 264.823 61.1688 264.549 61.3556C264.277 61.5397 264.067 61.7798 263.92 62.0759C263.774 62.3721 263.7 62.6896 263.7 63.0284V63.5727C263.7 64.037 263.78 64.4305 263.94 64.7533C264.103 65.0735 264.329 65.3176 264.617 65.4857C264.905 65.6511 265.24 65.7338 265.621 65.7338C265.869 65.7338 266.093 65.6992 266.294 65.6298C266.496 65.5578 266.671 65.451 266.818 65.3096C266.965 65.1656 267.078 64.9868 267.158 64.7733L268.071 65.0295C267.974 65.339 267.813 65.6111 267.586 65.8459C267.359 66.078 267.079 66.2595 266.746 66.3902C266.412 66.5183 266.037 66.5823 265.621 66.5823ZM270.999 65.0615L273.96 60.307H275.049V66.4542H274.104V61.6997L271.159 66.4542H270.054V60.307H270.999V65.0615ZM273.336 58.2579H274.216C274.216 58.6902 274.067 59.0437 273.768 59.3185C273.469 59.5933 273.064 59.7307 272.551 59.7307C272.047 59.7307 271.646 59.5933 271.347 59.3185C271.051 59.0437 270.903 58.6902 270.903 58.2579H271.783C271.783 58.4661 271.84 58.6488 271.955 58.8062C272.072 58.9636 272.271 59.0424 272.551 59.0424C272.832 59.0424 273.032 58.9636 273.152 58.8062C273.274 58.6488 273.336 58.4661 273.336 58.2579Z" fill="#292929"/>
<path d="M0.739746 34.4569V31.74C0.826974 31.5883 0.910716 31.433 0.994213 31.278C1.76161 29.8544 2.50841 28.4689 5.7517 30.3164C8.97728 32.1549 12.882 36.6899 15.934 40.2346C16.6885 41.111 17.391 41.9269 18.0181 42.6264C17.8172 42.1346 17.3818 41.2186 16.8056 40.006C13.524 33.1006 5.67168 16.5772 10.4935 13.9935C16.2154 10.9238 22.5506 24.6191 24.5344 28.9078L24.535 28.909C24.7271 29.3236 24.9786 29.8998 25.2604 30.5456C26.0607 32.3795 27.1059 34.7744 27.7313 35.6224C27.4887 33.1932 26.3238 29.0261 25.0326 24.4071C22.8161 16.478 20.2274 7.21745 21.2928 3.13151C21.8494 1.00421 23.3275 0.403244 23.9839 0.172851C24.6402 -0.0575429 25.8628 -0.0576908 26.2939 0.172851C26.3084 0.180585 26.3251 0.18935 26.344 0.199259C26.8885 0.484745 29.2446 1.72 31.6652 6.60908C32.9432 9.19281 33.9888 12.0183 34.9777 14.8629C35.5753 16.5849 36.1335 18.2858 36.6939 19.9933C37.0964 21.2195 37.4999 22.4492 37.92 23.6927C37.9909 23.9026 38.0609 24.1107 38.1305 24.3174C38.5625 25.6004 38.9758 26.8281 39.4412 28.094C39.578 28.4651 39.7562 28.8987 39.944 29.3556C40.3569 30.3605 40.8159 31.4774 40.9813 32.2861C33.0899 34.8156 30.8951 37.3813 29.0359 39.5546C27.8778 40.9084 26.8499 42.1099 24.6566 43.0557C16.705 46.4844 20.1526 50.8341 26.0265 49.1469C27.1224 48.831 28.41 48.1919 29.4224 47.6893C29.5506 47.6257 29.6744 47.5643 29.7928 47.5059C31.341 46.7425 34.5022 44.2647 37.5823 41.6973C37.7625 41.5472 37.9437 41.3955 38.1255 41.2433C39.964 39.7039 41.8604 38.1162 43.2913 37.6736C44.618 37.2634 44.8422 37.9806 44.4342 38.7033C43.9693 39.5236 42.8013 40.5043 42.2964 40.9283C42.1675 41.0365 42.0818 41.1084 42.062 41.1322C41.3001 42.0505 41.5513 42.5504 42.6294 41.806C43.8479 40.961 45.388 40.0753 46.9956 39.2847C49.2517 38.1762 50.4999 39.3662 48.179 41.1485L44.4018 43.9686C44.2511 44.0883 44.1147 44.1948 43.996 44.2876C43.2738 44.8517 43.2035 44.9066 44.5261 44.3163C46.2418 43.5448 48.7761 42.5341 50.8836 41.9011C53.4341 41.1349 54.3122 42.852 51.4537 44.2077C49.8569 44.9657 47.9007 45.9437 46.5687 46.7316C45.6447 47.2777 46.077 47.5739 47.0172 47.3755C47.7841 47.2127 48.7303 46.8645 49.5648 46.5573C50.3178 46.2802 50.9799 46.0364 51.3375 45.9926C52.1616 45.8921 53.0775 47.0984 51.5644 48.0683C49.6562 49.2894 46.5291 50.8651 44.4102 51.9329C43.1298 52.5781 42.2176 53.0377 42.1647 53.1217C42.7699 53.47 43.4605 53.556 44.1681 53.6441C44.8788 53.7326 45.6067 53.8232 46.2823 54.184C47.4927 54.8306 49.4111 58.1234 45.207 57.0177C44.2748 56.7242 43.1211 56.5775 42.0728 56.5014C41.1922 56.4386 40.372 56.3659 39.584 56.2961C37.1032 56.0763 34.9409 55.8847 32.2137 56.1156C31.1519 56.3303 30.1144 56.6074 29.0633 56.9905C29.008 57.0105 28.9533 57.0304 28.8992 57.05C26.3326 57.9808 25.1368 58.4144 24.0757 60.2344C23.744 60.804 23.4128 61.3594 23.0841 61.9105C22.3875 63.0786 21.7023 64.2278 21.0469 65.4535C17.2427 72.5879 21.282 73.604 27.6449 65.2415L31.8571 59.327C33.0027 57.5556 33.2617 57.7036 33.1161 58.0202C33.1094 58.0349 33.0797 58.0983 33.0298 58.2048C32.2842 59.7968 27.0268 71.0234 26.2696 73.547C25.786 75.1635 25.17 79.2171 28.0069 78.133C30.4763 77.1883 34.3163 69.269 36.8753 63.9915C37.959 61.7565 38.813 59.9953 39.2359 59.4383C39.1575 60.5257 38.7146 62.3665 38.1937 64.5315C37.3142 68.187 36.2122 72.767 36.2665 76.2068C36.2962 78.0488 37.1662 80.1354 39.1143 78.9101C41.7108 77.2772 45.6933 59.9192 45.6825 59.8214C45.8016 61.2027 45.6551 63.526 45.5007 65.9731C45.2209 70.4087 44.9154 75.2507 46.1202 75.6254C47.9896 76.2068 48.7275 75.0412 49.1004 73.3595C49.3345 72.3045 49.5423 71.3238 49.742 70.3814C50.4227 67.1691 51.0087 64.4034 52.2183 60.6664C52.8355 58.7554 53.6722 56.8724 54.5124 54.9812C55.9563 51.7315 57.4108 48.4577 57.7814 44.9765C57.9411 43.4775 58.0402 42.2233 58.128 41.1122C58.483 36.6208 58.6533 34.465 61.8937 27.9092C63.0717 25.532 65.0251 24.1355 68.0971 23.5188C71.8825 22.7593 73.9563 24.4633 75.1534 25.447C75.4422 25.6843 75.68 25.8797 75.8785 25.9884V26.9828L71.8257 34.59C68.3295 41.2544 65.5277 54.8143 64.7576 62.3834C63.8741 71.0937 62.6502 74.2561 57.9192 78.9237C42.5808 94.0484 20.158 84.5041 13.4871 65.0269C13.2608 64.3655 13.0286 63.683 12.7906 62.9838C10.4431 56.086 7.54201 47.5613 4.36024 41.6212C3.98441 40.9194 3.59825 40.332 3.23187 39.7746C2.89762 39.2662 2.57984 38.7828 2.30142 38.2605C1.93806 37.5837 1.67384 36.8356 1.42784 36.139C1.20374 35.5045 0.994769 34.9128 0.739746 34.4569Z" fill="url(#paint0_linear_79_8)"/>
<path d="M43.3812 31.9139C42.7017 31.9308 42.0686 31.9466 41.5317 31.9801C41.4784 30.1927 41.2194 28.1815 40.9648 26.2049C40.8137 25.0315 40.6641 23.8702 40.5601 22.7754C40.5368 22.5325 40.508 22.2492 40.4757 21.9311C39.9392 16.654 38.4286 1.794 44.7009 3.00903C48.9621 3.83583 51.729 26.8682 50.8094 29.9941C50.2982 31.7415 46.3863 31.839 43.3812 31.9139Z" fill="url(#paint1_linear_79_8)"/>
<defs>
<linearGradient id="paint0_linear_79_8" x1="45.4542" y1="2.9387" x2="45.4542" y2="31.9801" gradientUnits="userSpaceOnUse">
<stop stop-color="#04BDF7"/>
<stop offset="1" stop-color="#04A0F8"/>
</linearGradient>
<linearGradient id="paint1_linear_79_8" x1="45.4542" y1="2.9387" x2="45.4542" y2="31.9801" gradientUnits="userSpaceOnUse">
<stop stop-color="#04BDF7"/>
<stop offset="1" stop-color="#04A0F8"/>
</linearGradient>
</defs>
</svg>
