<svg width="257" height="87" viewBox="0 0 257 87" fill="none" xmlns="http://www.w3.org/2000/svg">
<path d="M84.4486 51.2102V35.3299H88.7598V41.5332H94.4668V35.3299H98.7781V51.2102H94.4668V45.007H88.7598V51.2102H84.4486ZM104.95 51.2102H100.298L105.54 35.3299H111.433L116.674 51.2102H112.022L108.548 39.7032H108.424L104.95 51.2102ZM104.082 44.9449H112.828V48.1706H104.082V44.9449ZM128.788 51.4273C127.537 51.4273 126.426 51.2128 125.454 50.7837C124.487 50.3495 123.727 49.7524 123.174 48.9925C122.621 48.2327 122.342 47.359 122.337 46.3717H126.679C126.684 46.6767 126.777 46.9506 126.958 47.1936C127.144 47.4314 127.398 47.6175 127.718 47.7519C128.039 47.8863 128.406 47.9535 128.819 47.9535C129.217 47.9535 129.569 47.8837 129.874 47.7441C130.179 47.5994 130.417 47.4004 130.587 47.1471C130.758 46.8938 130.84 46.6043 130.835 46.2786C130.84 45.9581 130.742 45.6738 130.541 45.4257C130.344 45.1776 130.068 44.9837 129.711 44.8441C129.354 44.7046 128.943 44.6348 128.478 44.6348H126.865V41.6572H128.478C128.907 41.6572 129.284 41.5874 129.61 41.4479C129.941 41.3083 130.197 41.1144 130.378 40.8663C130.564 40.6182 130.654 40.3339 130.649 40.0134C130.654 39.7032 130.579 39.4292 130.424 39.1914C130.269 38.9536 130.052 38.7675 129.773 38.6331C129.499 38.4987 129.181 38.4315 128.819 38.4315C128.426 38.4315 128.075 38.5013 127.765 38.6409C127.46 38.7805 127.219 38.9743 127.043 39.2225C126.868 39.4706 126.777 39.7549 126.772 40.0754H122.647C122.652 39.1036 122.918 38.2454 123.446 37.5011C123.978 36.7567 124.707 36.1725 125.632 35.7486C126.558 35.3248 127.62 35.1128 128.819 35.1128C129.993 35.1128 131.029 35.3118 131.929 35.7099C132.833 36.1079 133.539 36.6559 134.045 37.3537C134.557 38.0464 134.81 38.8399 134.805 39.7342C134.816 40.6233 134.511 41.3522 133.89 41.9209C133.275 42.4895 132.495 42.8255 131.549 42.9289V43.0529C132.831 43.1925 133.795 43.5854 134.441 44.2316C135.087 44.8726 135.405 45.679 135.395 46.6508C135.4 47.5813 135.121 48.4058 134.557 49.1244C133.999 49.8429 133.221 50.4064 132.223 50.8147C131.231 51.2231 130.086 51.4273 128.788 51.4273ZM136.761 55.0252V47.8915H137.878C138.25 47.664 138.586 47.3435 138.886 46.93C139.191 46.5164 139.449 45.9245 139.661 45.1543C139.878 44.3841 140.039 43.3528 140.142 42.0604L140.669 35.3299H151.897V47.8915H153.572V55.0252H149.416V51.2102H140.917V55.0252H136.761ZM142.809 47.8915H147.741V38.8037H144.546L144.298 42.0604C144.226 43.0323 144.115 43.8826 143.965 44.6115C143.82 45.3352 143.647 45.9659 143.445 46.5035C143.249 47.0359 143.037 47.4986 142.809 47.8915ZM170.414 43.2701C170.414 45.038 170.07 46.5293 169.383 47.7441C168.695 48.9538 167.767 49.8713 166.599 50.4968C165.431 51.1172 164.128 51.4273 162.691 51.4273C161.243 51.4273 159.936 51.1146 158.767 50.4891C157.604 49.8584 156.679 48.9383 155.991 47.7286C155.309 46.5138 154.968 45.0276 154.968 43.2701C154.968 41.5021 155.309 40.0134 155.991 38.8037C156.679 37.5889 157.604 36.6714 158.767 36.051C159.936 35.4256 161.243 35.1128 162.691 35.1128C164.128 35.1128 165.431 35.4256 166.599 36.051C167.767 36.6714 168.695 37.5889 169.383 38.8037C170.07 40.0134 170.414 41.5021 170.414 43.2701ZM165.978 43.2701C165.978 42.3189 165.852 41.5176 165.599 40.8663C165.35 40.2098 164.981 39.7135 164.49 39.3775C164.004 39.0364 163.404 38.8658 162.691 38.8658C161.977 38.8658 161.375 39.0364 160.884 39.3775C160.398 39.7135 160.029 40.2098 159.775 40.8663C159.527 41.5176 159.403 42.3189 159.403 43.2701C159.403 44.2212 159.527 45.0251 159.775 45.6816C160.029 46.3329 160.398 46.8292 160.884 47.1703C161.375 47.5064 161.977 47.6744 162.691 47.6744C163.404 47.6744 164.004 47.5064 164.49 47.1703C164.981 46.8292 165.35 46.3329 165.599 45.6816C165.852 45.0251 165.978 44.2212 165.978 43.2701ZM172.409 51.2102V35.3299H179.263C180.442 35.3299 181.473 35.5625 182.357 36.0278C183.241 36.493 183.928 37.147 184.42 37.9896C184.911 38.8322 185.156 39.8169 185.156 40.9438C185.156 42.0811 184.903 43.0659 184.396 43.8981C183.895 44.7304 183.189 45.3714 182.279 45.8211C181.375 46.2709 180.318 46.4957 179.108 46.4957H175.014V43.146H178.24C178.746 43.146 179.178 43.0581 179.534 42.8824C179.896 42.7014 180.173 42.4455 180.364 42.1147C180.561 41.7839 180.659 41.3936 180.659 40.9438C180.659 40.4889 180.561 40.1012 180.364 39.7807C180.173 39.4551 179.896 39.2069 179.534 39.0364C179.178 38.8606 178.746 38.7727 178.24 38.7727H176.72V51.2102H172.409ZM202.122 43.2701C202.122 45.038 201.778 46.5293 201.091 47.7441C200.403 48.9538 199.475 49.8713 198.307 50.4968C197.139 51.1172 195.836 51.4273 194.399 51.4273C192.952 51.4273 191.644 51.1146 190.475 50.4891C189.312 49.8584 188.387 48.9383 187.7 47.7286C187.017 46.5138 186.676 45.0276 186.676 43.2701C186.676 41.5021 187.017 40.0134 187.7 38.8037C188.387 37.5889 189.312 36.6714 190.475 36.051C191.644 35.4256 192.952 35.1128 194.399 35.1128C195.836 35.1128 197.139 35.4256 198.307 36.051C199.475 36.6714 200.403 37.5889 201.091 38.8037C201.778 40.0134 202.122 41.5021 202.122 43.2701ZM197.687 43.2701C197.687 42.3189 197.56 41.5176 197.307 40.8663C197.059 40.2098 196.689 39.7135 196.198 39.3775C195.712 39.0364 195.112 38.8658 194.399 38.8658C193.686 38.8658 193.083 39.0364 192.592 39.3775C192.106 39.7135 191.737 40.2098 191.483 40.8663C191.235 41.5176 191.111 42.3189 191.111 43.2701C191.111 44.2212 191.235 45.0251 191.483 45.6816C191.737 46.3329 192.106 46.8292 192.592 47.1703C193.083 47.5064 193.686 47.6744 194.399 47.6744C195.112 47.6744 195.712 47.5064 196.198 47.1703C196.689 46.8292 197.059 46.3329 197.307 45.6816C197.56 45.0251 197.687 44.2212 197.687 43.2701ZM204.117 51.2102V35.3299H211.002C212.212 35.3299 213.228 35.4928 214.05 35.8184C214.877 36.1441 215.5 36.6042 215.918 37.1986C216.342 37.7931 216.554 38.4936 216.554 39.3C216.554 39.8841 216.425 40.4166 216.167 40.8973C215.913 41.3781 215.557 41.7813 215.096 42.107C214.636 42.4275 214.099 42.6497 213.484 42.7738V42.9289C214.166 42.9547 214.786 43.1279 215.345 43.4484C215.903 43.7637 216.347 44.2005 216.678 44.7588C217.009 45.312 217.175 45.9633 217.175 46.7129C217.175 47.5813 216.947 48.3541 216.492 49.0313C216.042 49.7085 215.401 50.2409 214.569 50.6287C213.737 51.0164 212.744 51.2102 211.592 51.2102H204.117ZM208.428 47.7674H210.444C211.168 47.7674 211.711 47.633 212.072 47.3642C212.434 47.0902 212.615 46.687 212.615 46.1546C212.615 45.7824 212.53 45.467 212.359 45.2086C212.189 44.9501 211.946 44.7537 211.63 44.6193C211.32 44.4849 210.945 44.4177 210.506 44.4177H208.428V47.7674ZM208.428 41.7503H210.196C210.573 41.7503 210.907 41.6908 211.196 41.5719C211.486 41.453 211.711 41.2824 211.871 41.0602C212.036 40.8327 212.119 40.5561 212.119 40.2305C212.119 39.7394 211.943 39.3646 211.592 39.1061C211.24 38.8425 210.796 38.7107 210.258 38.7107H208.428V41.7503ZM221.432 40.6647H224.719C226.058 40.6647 227.226 40.8792 228.224 41.3083C229.227 41.7373 230.005 42.3422 230.558 43.1227C231.116 43.9033 231.393 44.8209 231.388 45.8754C231.393 46.93 231.116 47.8579 230.558 48.6591C230.005 49.4604 229.227 50.0859 228.224 50.5356C227.226 50.9853 226.058 51.2102 224.719 51.2102H218.795V35.3299H223.106V47.8294H224.719C225.241 47.8294 225.678 47.7441 226.03 47.5736C226.386 47.403 226.655 47.1678 226.836 46.8679C227.022 46.5681 227.113 46.2269 227.108 45.8444C227.113 45.3016 226.911 44.8519 226.503 44.4952C226.094 44.1333 225.5 43.9524 224.719 43.9524H221.432V40.6647ZM233.842 51.2102V35.3299H245.287V38.8037H238.153V41.5332H244.698V45.007H238.153V47.7364H245.256V51.2102H233.842ZM252.45 35.3299L252.046 46.2476H248.511L248.107 35.3299H252.45ZM250.279 51.4583C249.679 51.4583 249.165 51.249 248.735 50.8303C248.312 50.4064 248.102 49.892 248.107 49.2872C248.102 48.6979 248.312 48.1939 248.735 47.7752C249.165 47.3564 249.679 47.1471 250.279 47.1471C250.847 47.1471 251.349 47.3564 251.783 47.7752C252.222 48.1939 252.444 48.6979 252.45 49.2872C252.444 49.6904 252.339 50.0574 252.132 50.3883C251.93 50.7139 251.667 50.975 251.341 51.1714C251.015 51.3627 250.661 51.4583 250.279 51.4583Z" fill="#292929"/>
<path d="M86.7868 64.5823C86.2105 64.5823 85.7142 64.4462 85.298 64.1741C84.8818 63.9019 84.5616 63.5271 84.3375 63.0495C84.1134 62.5719 84.0013 62.0263 84.0013 61.4126C84.0013 60.7883 84.1161 60.2374 84.3455 59.7598C84.5777 59.2795 84.9005 58.9047 85.314 58.6352C85.7303 58.363 86.2158 58.227 86.7708 58.227C87.203 58.227 87.5926 58.307 87.9394 58.4671C88.2863 58.6272 88.5704 58.8513 88.7918 59.1395C89.0133 59.4276 89.1507 59.7638 89.2041 60.148H88.2596C88.1875 59.8678 88.0275 59.6197 87.7793 59.4036C87.5339 59.1848 87.203 59.0754 86.7868 59.0754C86.4186 59.0754 86.0958 59.1715 85.8183 59.3636C85.5435 59.553 85.3287 59.8211 85.174 60.168C85.0219 60.5122 84.9458 60.9164 84.9458 61.3806C84.9458 61.8555 85.0205 62.2691 85.17 62.6213C85.322 62.9735 85.5355 63.2469 85.8103 63.4417C86.0878 63.6365 86.4133 63.7338 86.7868 63.7338C87.0323 63.7338 87.255 63.6912 87.4552 63.6058C87.6553 63.5204 87.8247 63.3977 87.9634 63.2376C88.1022 63.0775 88.2009 62.8854 88.2596 62.6613H89.2041C89.1507 63.0241 89.0186 63.351 88.8079 63.6418C88.5997 63.93 88.3236 64.1594 87.9794 64.3302C87.6379 64.4982 87.2404 64.5823 86.7868 64.5823ZM93.6129 64.5823C93.0206 64.5823 92.5097 64.4516 92.0801 64.1901C91.6532 63.9259 91.3237 63.5578 91.0916 63.0855C90.8622 62.6106 90.7474 62.0583 90.7474 61.4286C90.7474 60.799 90.8622 60.244 91.0916 59.7638C91.3237 59.2809 91.6466 58.9047 92.0601 58.6352C92.4763 58.363 92.9619 58.227 93.5169 58.227C93.837 58.227 94.1532 58.2803 94.4654 58.3871C94.7775 58.4938 95.0617 58.6672 95.3178 58.9073C95.5739 59.1448 95.7781 59.4596 95.9301 59.8518C96.0822 60.244 96.1583 60.7269 96.1583 61.3006V61.7008H91.4198V60.8844H95.1978C95.1978 60.5375 95.1284 60.228 94.9896 59.9559C94.8536 59.6837 94.6588 59.469 94.4053 59.3115C94.1545 59.1541 93.8584 59.0754 93.5169 59.0754C93.1407 59.0754 92.8152 59.1688 92.5404 59.3556C92.2682 59.5397 92.0588 59.7798 91.912 60.0759C91.7653 60.3721 91.6919 60.6896 91.6919 61.0284V61.5727C91.6919 62.037 91.772 62.4305 91.932 62.7533C92.0948 63.0735 92.3202 63.3176 92.6084 63.4857C92.8966 63.6511 93.2314 63.7338 93.6129 63.7338C93.8611 63.7338 94.0852 63.6992 94.2853 63.6298C94.488 63.5578 94.6628 63.451 94.8095 63.3096C94.9563 63.1656 95.0697 62.9868 95.1497 62.7733L96.0622 63.0295C95.9662 63.339 95.8047 63.6111 95.5779 63.8459C95.3512 64.078 95.071 64.2595 94.7375 64.3902C94.404 64.5183 94.0291 64.5823 93.6129 64.5823ZM98.0458 66.7594V58.307H98.9583V59.2835H99.0703C99.1397 59.1768 99.2358 59.0407 99.3585 58.8753C99.4839 58.7072 99.6626 58.5578 99.8948 58.4271C100.13 58.2937 100.447 58.227 100.847 58.227C101.365 58.227 101.821 58.3564 102.216 58.6152C102.611 58.874 102.919 59.2408 103.14 59.7158C103.362 60.1907 103.473 60.751 103.473 61.3966C103.473 62.0476 103.362 62.6119 103.14 63.0895C102.919 63.5644 102.612 63.9326 102.22 64.1941C101.828 64.4529 101.376 64.5823 100.863 64.5823C100.468 64.5823 100.152 64.5169 99.9148 64.3862C99.6773 64.2528 99.4946 64.102 99.3665 63.934C99.2384 63.7632 99.1397 63.6218 99.0703 63.5097H98.9903V66.7594H98.0458ZM98.9743 61.3806C98.9743 61.8449 99.0423 62.2544 99.1784 62.6093C99.3145 62.9614 99.5132 63.2376 99.7747 63.4377C100.036 63.6351 100.356 63.7338 100.735 63.7338C101.13 63.7338 101.46 63.6298 101.724 63.4217C101.991 63.2109 102.191 62.9281 102.324 62.5732C102.46 62.2157 102.528 61.8182 102.528 61.3806C102.528 60.9484 102.461 60.5589 102.328 60.212C102.197 59.8625 101.999 59.5864 101.732 59.3836C101.468 59.1781 101.135 59.0754 100.735 59.0754C100.351 59.0754 100.028 59.1728 99.7667 59.3676C99.5052 59.5597 99.3078 59.8291 99.1744 60.176C99.041 60.5202 98.9743 60.9217 98.9743 61.3806ZM105.364 64.4542V58.307H107.877C108.539 58.307 109.065 58.4564 109.454 58.7553C109.844 59.0541 110.039 59.4489 110.039 59.9399C110.039 60.3134 109.928 60.6029 109.706 60.8083C109.485 61.0111 109.201 61.1485 108.854 61.2205C109.081 61.2526 109.301 61.3326 109.514 61.4607C109.73 61.5887 109.909 61.7648 110.051 61.9889C110.192 62.2104 110.263 62.4825 110.263 62.8054C110.263 63.1202 110.183 63.4017 110.023 63.6498C109.863 63.8979 109.633 64.094 109.334 64.2381C109.035 64.3822 108.678 64.4542 108.262 64.4542H105.364ZM106.261 63.5898H108.262C108.587 63.5898 108.842 63.5124 109.026 63.3577C109.21 63.2029 109.302 62.9921 109.302 62.7253C109.302 62.4078 109.21 62.1584 109.026 61.9769C108.842 61.7928 108.587 61.7008 108.262 61.7008H106.261V63.5898ZM106.261 60.8844H107.877C108.131 60.8844 108.348 60.8497 108.53 60.7803C108.711 60.7083 108.85 60.6069 108.946 60.4761C109.045 60.3427 109.094 60.1853 109.094 60.0039C109.094 59.7451 108.986 59.5423 108.77 59.3956C108.554 59.2462 108.256 59.1715 107.877 59.1715H106.261V60.8844ZM113.088 63.0615L116.049 58.307H117.138V64.4542H116.193V59.6997L113.248 64.4542H112.143V58.307H113.088V63.0615ZM121.816 64.5823C121.24 64.5823 120.743 64.4462 120.327 64.1741C119.911 63.9019 119.591 63.5271 119.367 63.0495C119.142 62.5719 119.03 62.0263 119.03 61.4126C119.03 60.7883 119.145 60.2374 119.375 59.7598C119.607 59.2795 119.93 58.9047 120.343 58.6352C120.759 58.363 121.245 58.227 121.8 58.227C122.232 58.227 122.622 58.307 122.968 58.4671C123.315 58.6272 123.599 58.8513 123.821 59.1395C124.042 59.4276 124.18 59.7638 124.233 60.148H123.289C123.217 59.8678 123.057 59.6197 122.808 59.4036C122.563 59.1848 122.232 59.0754 121.816 59.0754C121.448 59.0754 121.125 59.1715 120.847 59.3636C120.573 59.553 120.358 59.8211 120.203 60.168C120.051 60.5122 119.975 60.9164 119.975 61.3806C119.975 61.8555 120.05 62.2691 120.199 62.6213C120.351 62.9735 120.565 63.2469 120.839 63.4417C121.117 63.6365 121.442 63.7338 121.816 63.7338C122.061 63.7338 122.284 63.6912 122.484 63.6058C122.684 63.5204 122.854 63.3977 122.992 63.2376C123.131 63.0775 123.23 62.8854 123.289 62.6613H124.233C124.18 63.0241 124.048 63.351 123.837 63.6418C123.629 63.93 123.353 64.1594 123.009 64.3302C122.667 64.4982 122.269 64.5823 121.816 64.5823ZM132.182 64.5823C131.627 64.5823 131.141 64.4502 130.722 64.1861C130.305 63.9219 129.98 63.5524 129.745 63.0775C129.513 62.6026 129.397 62.0476 129.397 61.4126C129.397 60.7723 129.513 60.2133 129.745 59.7358C129.98 59.2582 130.305 58.8873 130.722 58.6232C131.141 58.359 131.627 58.227 132.182 58.227C132.737 58.227 133.223 58.359 133.639 58.6232C134.058 58.8873 134.384 59.2582 134.616 59.7358C134.85 60.2133 134.968 60.7723 134.968 61.4126C134.968 62.0476 134.85 62.6026 134.616 63.0775C134.384 63.5524 134.058 63.9219 133.639 64.1861C133.223 64.4502 132.737 64.5823 132.182 64.5823ZM132.182 63.7338C132.604 63.7338 132.951 63.6258 133.223 63.4097C133.495 63.1936 133.697 62.9094 133.827 62.5572C133.958 62.2051 134.023 61.8235 134.023 61.4126C134.023 61.0018 133.958 60.6189 133.827 60.264C133.697 59.9092 133.495 59.6224 133.223 59.4036C132.951 59.1848 132.604 59.0754 132.182 59.0754C131.761 59.0754 131.414 59.1848 131.142 59.4036C130.87 59.6224 130.668 59.9092 130.538 60.264C130.407 60.6189 130.341 61.0018 130.341 61.4126C130.341 61.8235 130.407 62.2051 130.538 62.5572C130.668 62.9094 130.87 63.1936 131.142 63.4097C131.414 63.6258 131.761 63.7338 132.182 63.7338ZM140.975 60.9484V61.8289H137.581V60.9484H140.975ZM137.805 58.307V64.4542H136.86V58.307H137.805ZM141.695 58.307V64.4542H140.75V58.307H141.695ZM143.326 64.4542V63.5738H143.55C143.735 63.5738 143.888 63.5377 144.011 63.4657C144.133 63.391 144.232 63.2616 144.307 63.0775C144.384 62.8907 144.443 62.6319 144.483 62.3011C144.526 61.9676 144.556 61.5434 144.575 61.0284L144.687 58.307H148.785V64.4542H147.841V59.1875H145.584L145.487 61.3806C145.466 61.8849 145.421 62.3291 145.351 62.7133C145.285 63.0948 145.182 63.415 145.043 63.6738C144.907 63.9326 144.726 64.1274 144.499 64.2581C144.272 64.3889 143.988 64.4542 143.647 64.4542H143.326ZM152.778 64.5983C152.388 64.5983 152.035 64.5249 151.717 64.3782C151.4 64.2288 151.148 64.014 150.961 63.7338C150.774 63.451 150.681 63.1095 150.681 62.7093C150.681 62.3571 150.75 62.0716 150.889 61.8529C151.028 61.6314 151.213 61.458 151.445 61.3326C151.677 61.2072 151.933 61.1138 152.214 61.0524C152.496 60.9884 152.781 60.9377 153.066 60.9004C153.44 60.8523 153.742 60.8163 153.974 60.7923C154.209 60.7656 154.38 60.7216 154.487 60.6602C154.596 60.5989 154.651 60.4922 154.651 60.3401V60.3081C154.651 59.9132 154.543 59.6064 154.327 59.3876C154.113 59.1688 153.789 59.0594 153.354 59.0594C152.903 59.0594 152.55 59.1581 152.294 59.3556C152.037 59.553 151.857 59.7638 151.753 59.9879L150.857 59.6677C151.017 59.2942 151.23 59.0034 151.497 58.7953C151.767 58.5845 152.06 58.4378 152.378 58.355C152.698 58.2697 153.013 58.227 153.322 58.227C153.52 58.227 153.746 58.251 154.002 58.299C154.261 58.3444 154.511 58.4391 154.751 58.5832C154.994 58.7272 155.195 58.9447 155.355 59.2355C155.515 59.5263 155.595 59.9159 155.595 60.4041V64.4542H154.651V63.6218H154.603C154.539 63.7552 154.432 63.8979 154.283 64.05C154.133 64.2021 153.934 64.3315 153.686 64.4382C153.438 64.5449 153.135 64.5983 152.778 64.5983ZM152.922 63.7499C153.295 63.7499 153.61 63.6765 153.866 63.5297C154.125 63.383 154.32 63.1936 154.451 62.9614C154.584 62.7293 154.651 62.4852 154.651 62.2291V61.3646C154.611 61.4126 154.523 61.4567 154.387 61.4967C154.253 61.534 154.099 61.5674 153.922 61.5967C153.749 61.6234 153.58 61.6474 153.414 61.6688C153.251 61.6874 153.119 61.7035 153.018 61.7168C152.772 61.7488 152.543 61.8008 152.33 61.8729C152.119 61.9422 151.948 62.0476 151.817 62.189C151.689 62.3278 151.625 62.5172 151.625 62.7573C151.625 63.0855 151.747 63.3336 151.989 63.5017C152.235 63.6671 152.546 63.7499 152.922 63.7499ZM158.714 63.0615L161.676 58.307H162.765V64.4542H161.82V59.6997L158.875 64.4542H157.77V58.307H158.714V63.0615ZM161.052 56.2579H161.932C161.932 56.6902 161.783 57.0437 161.484 57.3185C161.185 57.5933 160.78 57.7307 160.267 57.7307C159.763 57.7307 159.361 57.5933 159.063 57.3185C158.767 57.0437 158.618 56.6902 158.618 56.2579H159.499C159.499 56.4661 159.556 56.6488 159.671 56.8062C159.788 56.9636 159.987 57.0424 160.267 57.0424C160.547 57.0424 160.748 56.9636 160.868 56.8062C160.99 56.6488 161.052 56.4661 161.052 56.2579ZM169.059 60.9484V61.8289H165.666V60.9484H169.059ZM165.89 58.307V64.4542H164.945V58.307H165.89ZM169.78 58.307V64.4542H168.835V58.307H169.78ZM175.576 64.4542V58.307H176.52V60.9804H177.145L179.354 58.307H180.571L178.089 61.2686L180.603 64.4542H179.386L177.369 61.8609H176.52V64.4542H175.576ZM184.324 64.5823C183.769 64.5823 183.282 64.4502 182.863 64.1861C182.447 63.9219 182.122 63.5524 181.887 63.0775C181.655 62.6026 181.539 62.0476 181.539 61.4126C181.539 60.7723 181.655 60.2133 181.887 59.7358C182.122 59.2582 182.447 58.8873 182.863 58.6232C183.282 58.359 183.769 58.227 184.324 58.227C184.879 58.227 185.365 58.359 185.781 58.6232C186.2 58.8873 186.525 59.2582 186.757 59.7358C186.992 60.2133 187.11 60.7723 187.11 61.4126C187.11 62.0476 186.992 62.6026 186.757 63.0775C186.525 63.5524 186.2 63.9219 185.781 64.1861C185.365 64.4502 184.879 64.5823 184.324 64.5823ZM184.324 63.7338C184.746 63.7338 185.092 63.6258 185.365 63.4097C185.637 63.1936 185.838 62.9094 185.969 62.5572C186.1 62.2051 186.165 61.8235 186.165 61.4126C186.165 61.0018 186.1 60.6189 185.969 60.264C185.838 59.9092 185.637 59.6224 185.365 59.4036C185.092 59.1848 184.746 59.0754 184.324 59.0754C183.903 59.0754 183.556 59.1848 183.284 59.4036C183.011 59.6224 182.81 59.9092 182.679 60.264C182.548 60.6189 182.483 61.0018 182.483 61.4126C182.483 61.8235 182.548 62.2051 182.679 62.5572C182.81 62.9094 183.011 63.1936 183.284 63.4097C183.556 63.6258 183.903 63.7338 184.324 63.7338ZM193.116 60.9484V61.8289H189.722V60.9484H193.116ZM189.947 58.307V64.4542H189.002V58.307H189.947ZM193.837 58.307V64.4542H192.892V58.307H193.837ZM198.51 64.5823C197.933 64.5823 197.437 64.4462 197.021 64.1741C196.605 63.9019 196.284 63.5271 196.06 63.0495C195.836 62.5719 195.724 62.0263 195.724 61.4126C195.724 60.7883 195.839 60.2374 196.068 59.7598C196.3 59.2795 196.623 58.9047 197.037 58.6352C197.453 58.363 197.939 58.227 198.494 58.227C198.926 58.227 199.315 58.307 199.662 58.4671C200.009 58.6272 200.293 58.8513 200.515 59.1395C200.736 59.4276 200.874 59.7638 200.927 60.148H199.982C199.91 59.8678 199.75 59.6197 199.502 59.4036C199.257 59.1848 198.926 59.0754 198.51 59.0754C198.141 59.0754 197.819 59.1715 197.541 59.3636C197.266 59.553 197.052 59.8211 196.897 60.168C196.745 60.5122 196.669 60.9164 196.669 61.3806C196.669 61.8555 196.743 62.2691 196.893 62.6213C197.045 62.9735 197.258 63.2469 197.533 63.4417C197.811 63.6365 198.136 63.7338 198.51 63.7338C198.755 63.7338 198.978 63.6912 199.178 63.6058C199.378 63.5204 199.547 63.3977 199.686 63.2376C199.825 63.0775 199.924 62.8854 199.982 62.6613H200.927C200.874 63.0241 200.741 63.351 200.531 63.6418C200.323 63.93 200.046 64.1594 199.702 64.3302C199.361 64.4982 198.963 64.5823 198.51 64.5823ZM203.367 66.7594C203.207 66.7594 203.064 66.7461 202.938 66.7194C202.813 66.6954 202.726 66.6714 202.678 66.6474L202.918 65.8149C203.148 65.8736 203.351 65.895 203.527 65.879C203.703 65.863 203.859 65.7843 203.995 65.6428C204.134 65.5041 204.261 65.2787 204.375 64.9665L204.551 64.4862L202.278 58.307H203.303L205 63.2056H205.064L206.76 58.307H207.785L205.176 65.3507C205.058 65.6682 204.913 65.931 204.739 66.1391C204.566 66.3499 204.365 66.506 204.135 66.6073C203.908 66.7087 203.652 66.7594 203.367 66.7594ZM208.421 64.4542V63.5738H208.645C208.829 63.5738 208.983 63.5377 209.105 63.4657C209.228 63.391 209.327 63.2616 209.401 63.0775C209.479 62.8907 209.537 62.6319 209.578 62.3011C209.62 61.9676 209.651 61.5434 209.67 61.0284L209.782 58.307H213.88V64.4542H212.935V59.1875H210.678L210.582 61.3806C210.561 61.8849 210.515 62.3291 210.446 62.7133C210.379 63.0948 210.277 63.415 210.138 63.6738C210.002 63.9326 209.82 64.1274 209.594 64.2581C209.367 64.3889 209.083 64.4542 208.741 64.4542H208.421ZM216.88 60.5322H218.641C219.361 60.5322 219.912 60.7149 220.294 61.0805C220.675 61.446 220.866 61.9089 220.866 62.4692C220.866 62.8374 220.781 63.1722 220.61 63.4737C220.439 63.7725 220.188 64.0113 219.857 64.1901C219.527 64.3662 219.121 64.4542 218.641 64.4542H216.063V58.307H217.008V63.5738H218.641C219.014 63.5738 219.321 63.475 219.561 63.2776C219.801 63.0802 219.921 62.8267 219.921 62.5172C219.921 62.1917 219.801 61.9262 219.561 61.7208C219.321 61.5154 219.014 61.4126 218.641 61.4126H216.88V60.5322ZM221.764 59.1875V58.307H226.759V59.1875H224.742V64.4542H223.797V59.1875H221.764ZM230.077 64.5983C229.687 64.5983 229.334 64.5249 229.016 64.3782C228.699 64.2288 228.447 64.014 228.26 63.7338C228.073 63.451 227.98 63.1095 227.98 62.7093C227.98 62.3571 228.049 62.0716 228.188 61.8529C228.327 61.6314 228.512 61.458 228.744 61.3326C228.976 61.2072 229.232 61.1138 229.513 61.0524C229.795 60.9884 230.08 60.9377 230.365 60.9004C230.739 60.8523 231.041 60.8163 231.274 60.7923C231.508 60.7656 231.679 60.7216 231.786 60.6602C231.895 60.5989 231.95 60.4922 231.95 60.3401V60.3081C231.95 59.9132 231.842 59.6064 231.626 59.3876C231.412 59.1688 231.088 59.0594 230.653 59.0594C230.202 59.0594 229.849 59.1581 229.593 59.3556C229.336 59.553 229.156 59.7638 229.052 59.9879L228.156 59.6677C228.316 59.2942 228.529 59.0034 228.796 58.7953C229.066 58.5845 229.359 58.4378 229.677 58.355C229.997 58.2697 230.312 58.227 230.621 58.227C230.819 58.227 231.045 58.251 231.302 58.299C231.56 58.3444 231.81 58.4391 232.05 58.5832C232.293 58.7272 232.494 58.9447 232.654 59.2355C232.814 59.5263 232.894 59.9159 232.894 60.4041V64.4542H231.95V63.6218H231.902C231.838 63.7552 231.731 63.8979 231.582 64.05C231.432 64.2021 231.233 64.3315 230.985 64.4382C230.737 64.5449 230.434 64.5983 230.077 64.5983ZM230.221 63.7499C230.594 63.7499 230.909 63.6765 231.165 63.5297C231.424 63.383 231.619 63.1936 231.75 62.9614C231.883 62.7293 231.95 62.4852 231.95 62.2291V61.3646C231.91 61.4126 231.822 61.4567 231.686 61.4967C231.552 61.534 231.398 61.5674 231.221 61.5967C231.048 61.6234 230.879 61.6474 230.713 61.6688C230.55 61.6874 230.418 61.7035 230.317 61.7168C230.072 61.7488 229.842 61.8008 229.629 61.8729C229.418 61.9422 229.247 62.0476 229.116 62.189C228.988 62.3278 228.924 62.5172 228.924 62.7573C228.924 63.0855 229.046 63.3336 229.288 63.5017C229.534 63.6671 229.845 63.7499 230.221 63.7499ZM239.904 58.307V63.5738H240.768V66.4393H239.824V64.4542H235.069V58.307H236.014V63.5738H238.959V58.307H239.904ZM243.618 63.0615L246.58 58.307H247.668V64.4542H246.724V59.6997L243.778 64.4542H242.674V58.307H243.618V63.0615ZM250.793 63.0615L253.755 58.307H254.843V64.4542H253.899V59.6997L250.953 64.4542H249.849V58.307H250.793V63.0615ZM253.131 56.2579H254.011C254.011 56.6902 253.862 57.0437 253.563 57.3185C253.264 57.5933 252.858 57.7307 252.346 57.7307C251.842 57.7307 251.44 57.5933 251.142 57.3185C250.845 57.0437 250.697 56.6902 250.697 56.2579H251.578C251.578 56.4661 251.635 56.6488 251.75 56.8062C251.867 56.9636 252.066 57.0424 252.346 57.0424C252.626 57.0424 252.826 56.9636 252.946 56.8062C253.069 56.6488 253.131 56.4661 253.131 56.2579Z" fill="#292929"/>
<path d="M0.739746 34.4569V31.74C0.826974 31.5883 0.910716 31.433 0.994213 31.278C1.76161 29.8544 2.50841 28.4689 5.7517 30.3164C8.97728 32.1549 12.882 36.6899 15.934 40.2346C16.6885 41.111 17.391 41.9269 18.0181 42.6264C17.8172 42.1346 17.3818 41.2186 16.8056 40.006C13.524 33.1006 5.67168 16.5772 10.4935 13.9935C16.2154 10.9238 22.5506 24.6191 24.5344 28.9078L24.535 28.909C24.7271 29.3236 24.9786 29.8998 25.2604 30.5456C26.0607 32.3795 27.1059 34.7744 27.7313 35.6224C27.4887 33.1932 26.3238 29.0261 25.0326 24.4071C22.8161 16.478 20.2274 7.21745 21.2928 3.13151C21.8494 1.00421 23.3275 0.403244 23.9839 0.172851C24.6402 -0.0575429 25.8628 -0.0576908 26.2939 0.172851C26.3084 0.180585 26.3251 0.18935 26.344 0.199259C26.8885 0.484745 29.2446 1.72 31.6652 6.60908C32.9432 9.19281 33.9888 12.0183 34.9777 14.8629C35.5753 16.5849 36.1335 18.2858 36.6939 19.9933C37.0964 21.2195 37.4999 22.4492 37.92 23.6927C37.9909 23.9026 38.0609 24.1107 38.1305 24.3174C38.5625 25.6004 38.9758 26.8281 39.4412 28.094C39.578 28.4651 39.7562 28.8987 39.944 29.3556C40.3569 30.3605 40.8159 31.4774 40.9813 32.2861C33.0899 34.8156 30.8951 37.3813 29.0359 39.5546C27.8778 40.9084 26.8499 42.1099 24.6566 43.0557C16.705 46.4844 20.1526 50.8341 26.0265 49.1469C27.1224 48.831 28.41 48.1919 29.4224 47.6893C29.5506 47.6257 29.6744 47.5643 29.7928 47.5059C31.341 46.7425 34.5022 44.2647 37.5823 41.6973C37.7625 41.5472 37.9437 41.3955 38.1255 41.2433C39.964 39.7039 41.8604 38.1162 43.2913 37.6736C44.618 37.2634 44.8422 37.9806 44.4342 38.7033C43.9693 39.5236 42.8013 40.5043 42.2964 40.9283C42.1675 41.0365 42.0818 41.1084 42.062 41.1322C41.3001 42.0505 41.5513 42.5504 42.6294 41.806C43.8479 40.961 45.388 40.0753 46.9956 39.2847C49.2517 38.1762 50.4999 39.3662 48.179 41.1485L44.4018 43.9686C44.2511 44.0883 44.1147 44.1948 43.996 44.2876C43.2738 44.8517 43.2035 44.9066 44.5261 44.3163C46.2418 43.5448 48.7761 42.5341 50.8836 41.9011C53.4341 41.1349 54.3122 42.852 51.4537 44.2077C49.8569 44.9657 47.9007 45.9437 46.5687 46.7316C45.6447 47.2777 46.077 47.5739 47.0172 47.3755C47.7841 47.2127 48.7303 46.8645 49.5648 46.5573C50.3178 46.2802 50.9799 46.0364 51.3375 45.9926C52.1616 45.8921 53.0775 47.0984 51.5644 48.0683C49.6562 49.2894 46.5291 50.8651 44.4102 51.9329C43.1298 52.5781 42.2176 53.0377 42.1647 53.1217C42.7699 53.47 43.4605 53.556 44.1681 53.6441C44.8788 53.7326 45.6067 53.8232 46.2823 54.184C47.4927 54.8306 49.4111 58.1234 45.207 57.0177C44.2748 56.7242 43.1211 56.5775 42.0728 56.5014C41.1922 56.4386 40.372 56.3659 39.584 56.2961C37.1032 56.0763 34.9409 55.8847 32.2137 56.1156C31.1519 56.3303 30.1144 56.6074 29.0633 56.9905C29.008 57.0105 28.9533 57.0304 28.8992 57.05C26.3326 57.9808 25.1368 58.4144 24.0757 60.2344C23.744 60.804 23.4128 61.3594 23.0841 61.9105C22.3875 63.0786 21.7023 64.2278 21.0469 65.4535C17.2427 72.5879 21.282 73.604 27.6449 65.2415L31.8571 59.327C33.0027 57.5556 33.2617 57.7036 33.1161 58.0202C33.1094 58.0349 33.0797 58.0983 33.0298 58.2048C32.2842 59.7968 27.0268 71.0234 26.2696 73.547C25.786 75.1635 25.17 79.2171 28.0069 78.133C30.4763 77.1883 34.3163 69.269 36.8753 63.9915C37.959 61.7565 38.813 59.9953 39.2359 59.4383C39.1575 60.5257 38.7146 62.3665 38.1937 64.5315C37.3142 68.187 36.2122 72.767 36.2665 76.2068C36.2962 78.0488 37.1662 80.1354 39.1143 78.9101C41.7108 77.2772 45.6933 59.9192 45.6825 59.8214C45.8016 61.2027 45.6551 63.526 45.5007 65.9731C45.2209 70.4087 44.9154 75.2507 46.1202 75.6254C47.9896 76.2068 48.7275 75.0412 49.1004 73.3595C49.3345 72.3045 49.5423 71.3238 49.742 70.3814C50.4227 67.1691 51.0087 64.4034 52.2183 60.6664C52.8355 58.7554 53.6722 56.8724 54.5124 54.9812C55.9563 51.7315 57.4108 48.4577 57.7814 44.9765C57.9411 43.4775 58.0402 42.2233 58.128 41.1122C58.483 36.6208 58.6533 34.465 61.8937 27.9092C63.0717 25.532 65.0251 24.1355 68.0971 23.5188C71.8825 22.7593 73.9563 24.4633 75.1534 25.447C75.4422 25.6843 75.68 25.8797 75.8785 25.9884V26.9828L71.8257 34.59C68.3295 41.2544 65.5277 54.8143 64.7576 62.3834C63.8741 71.0937 62.6502 74.2561 57.9192 78.9237C42.5808 94.0484 20.158 84.5041 13.4871 65.0269C13.2608 64.3655 13.0286 63.683 12.7906 62.9838C10.4431 56.086 7.54201 47.5613 4.36024 41.6212C3.98441 40.9194 3.59825 40.332 3.23187 39.7746C2.89762 39.2662 2.57984 38.7828 2.30142 38.2605C1.93806 37.5837 1.67384 36.8356 1.42784 36.139C1.20374 35.5045 0.994769 34.9128 0.739746 34.4569Z" fill="url(#paint0_linear_79_8)"/>
<path d="M43.3812 31.9139C42.7017 31.9308 42.0686 31.9466 41.5317 31.9801C41.4784 30.1927 41.2194 28.1815 40.9648 26.2049C40.8137 25.0315 40.6641 23.8702 40.5601 22.7754C40.5368 22.5325 40.508 22.2492 40.4757 21.9311C39.9392 16.654 38.4286 1.794 44.7009 3.00903C48.9621 3.83583 51.729 26.8682 50.8094 29.9941C50.2982 31.7415 46.3863 31.839 43.3812 31.9139Z" fill="url(#paint1_linear_79_8)"/>
<defs>
<linearGradient id="paint0_linear_79_8" x1="45.4542" y1="2.9387" x2="45.4542" y2="31.9801" gradientUnits="userSpaceOnUse">
<stop stop-color="#04BDF7"/>
<stop offset="1" stop-color="#04A0F8"/>
</linearGradient>
<linearGradient id="paint1_linear_79_8" x1="45.4542" y1="2.9387" x2="45.4542" y2="31.9801" gradientUnits="userSpaceOnUse">
<stop stop-color="#04BDF7"/>
<stop offset="1" stop-color="#04A0F8"/>
</linearGradient>
</defs>
</svg>
