<svg width="545" height="188" viewBox="0 0 545 188" fill="none" xmlns="http://www.w3.org/2000/svg">
<path d="M181.17 133V99.3302H190.311V112.482H202.411V99.3302H211.552V133H202.411V119.848H190.311V133H181.17ZM224.638 133H214.774L225.888 99.3302H238.382L249.496 133H239.632L232.267 108.603H232.004L224.638 133ZM222.797 119.716H241.342V126.555H222.797V119.716ZM275.18 133.46C272.528 133.46 270.171 133.005 268.111 132.096C266.061 131.175 264.45 129.909 263.277 128.298C262.105 126.687 261.513 124.835 261.502 122.741H270.708C270.719 123.388 270.917 123.969 271.3 124.484C271.695 124.988 272.232 125.383 272.911 125.668C273.591 125.953 274.369 126.095 275.246 126.095C276.09 126.095 276.835 125.947 277.482 125.651C278.128 125.344 278.633 124.922 278.994 124.385C279.356 123.848 279.531 123.234 279.52 122.544C279.531 121.864 279.323 121.262 278.896 120.736C278.479 120.209 277.893 119.798 277.136 119.502C276.38 119.207 275.509 119.059 274.522 119.059H271.103V112.746H274.522C275.432 112.746 276.232 112.598 276.923 112.302C277.624 112.006 278.167 111.595 278.55 111.069C278.945 110.543 279.137 109.94 279.126 109.26C279.137 108.603 278.978 108.022 278.649 107.517C278.32 107.013 277.86 106.619 277.268 106.334C276.687 106.049 276.013 105.906 275.246 105.906C274.413 105.906 273.668 106.054 273.01 106.35C272.363 106.646 271.854 107.057 271.481 107.583C271.108 108.109 270.917 108.712 270.906 109.392H262.159C262.17 107.331 262.735 105.512 263.853 103.933C264.982 102.355 266.527 101.117 268.489 100.218C270.451 99.3192 272.703 98.8699 275.246 98.8699C277.734 98.8699 279.931 99.2918 281.838 100.136C283.756 100.98 285.253 102.141 286.327 103.621C287.412 105.09 287.949 106.772 287.938 108.668C287.96 110.553 287.313 112.099 285.998 113.304C284.694 114.51 283.039 115.223 281.033 115.442V115.705C283.751 116.001 285.795 116.834 287.165 118.204C288.535 119.563 289.209 121.273 289.187 123.333C289.198 125.306 288.606 127.054 287.412 128.578C286.228 130.101 284.578 131.296 282.463 132.162C280.359 133.027 277.931 133.46 275.18 133.46ZM292.085 141.089V125.964H294.452C295.241 125.481 295.954 124.802 296.589 123.925C297.236 123.048 297.784 121.793 298.234 120.16C298.694 118.527 299.034 116.34 299.253 113.6L300.371 99.3302H324.176V125.964H327.727V141.089H318.915V133H300.897V141.089H292.085ZM304.908 125.964H315.364V106.695H308.591L308.065 113.6C307.911 115.661 307.676 117.464 307.358 119.009C307.051 120.544 306.684 121.881 306.256 123.021C305.84 124.15 305.391 125.131 304.908 125.964ZM363.436 116.165C363.436 119.913 362.707 123.076 361.249 125.651C359.792 128.216 357.824 130.161 355.347 131.487C352.87 132.803 350.108 133.46 347.061 133.46C343.992 133.46 341.22 132.797 338.742 131.471C336.276 130.134 334.315 128.183 332.857 125.618C331.41 123.043 330.687 119.892 330.687 116.165C330.687 112.417 331.41 109.26 332.857 106.695C334.315 104.12 336.276 102.174 338.742 100.859C341.22 99.533 343.992 98.8699 347.061 98.8699C350.108 98.8699 352.87 99.533 355.347 100.859C357.824 102.174 359.792 104.12 361.249 106.695C362.707 109.26 363.436 112.417 363.436 116.165ZM354.032 116.165C354.032 114.148 353.763 112.45 353.226 111.069C352.7 109.677 351.917 108.624 350.875 107.912C349.845 107.189 348.574 106.827 347.061 106.827C345.549 106.827 344.272 107.189 343.231 107.912C342.2 108.624 341.417 109.677 340.88 111.069C340.354 112.45 340.091 114.148 340.091 116.165C340.091 118.182 340.354 119.886 340.88 121.278C341.417 122.659 342.2 123.711 343.231 124.435C344.272 125.147 345.549 125.503 347.061 125.503C348.574 125.503 349.845 125.147 350.875 124.435C351.917 123.711 352.7 122.659 353.226 121.278C353.763 119.886 354.032 118.182 354.032 116.165ZM367.665 133V99.3302H382.198C384.697 99.3302 386.884 99.8234 388.758 100.81C390.632 101.796 392.09 103.183 393.131 104.969C394.172 106.756 394.693 108.844 394.693 111.233C394.693 113.644 394.156 115.732 393.082 117.497C392.019 119.261 390.523 120.62 388.594 121.574C386.676 122.528 384.434 123.004 381.87 123.004H373.189V115.902H380.028C381.102 115.902 382.018 115.716 382.774 115.343C383.541 114.959 384.127 114.417 384.533 113.715C384.949 113.014 385.158 112.187 385.158 111.233C385.158 110.268 384.949 109.446 384.533 108.767C384.127 108.076 383.541 107.55 382.774 107.189C382.018 106.816 381.102 106.63 380.028 106.63H376.806V133H367.665ZM430.665 116.165C430.665 119.913 429.936 123.076 428.478 125.651C427.02 128.216 425.053 130.161 422.576 131.487C420.099 132.803 417.337 133.46 414.29 133.46C411.221 133.46 408.448 132.797 405.971 131.471C403.505 130.134 401.543 128.183 400.085 125.618C398.639 123.043 397.915 119.892 397.915 116.165C397.915 112.417 398.639 109.26 400.085 106.695C401.543 104.12 403.505 102.174 405.971 100.859C408.448 99.533 411.221 98.8699 414.29 98.8699C417.337 98.8699 420.099 99.533 422.576 100.859C425.053 102.174 427.02 104.12 428.478 106.695C429.936 109.26 430.665 112.417 430.665 116.165ZM421.261 116.165C421.261 114.148 420.992 112.45 420.455 111.069C419.929 109.677 419.145 108.624 418.104 107.912C417.074 107.189 415.802 106.827 414.29 106.827C412.777 106.827 411.501 107.189 410.459 107.912C409.429 108.624 408.645 109.677 408.108 111.069C407.582 112.45 407.319 114.148 407.319 116.165C407.319 118.182 407.582 119.886 408.108 121.278C408.645 122.659 409.429 123.711 410.459 124.435C411.501 125.147 412.777 125.503 414.29 125.503C415.802 125.503 417.074 125.147 418.104 124.435C419.145 123.711 419.929 122.659 420.455 121.278C420.992 119.886 421.261 118.182 421.261 116.165ZM434.894 133V99.3302H449.493C452.057 99.3302 454.211 99.6754 455.954 100.366C457.707 101.056 459.028 102.032 459.916 103.292C460.815 104.553 461.264 106.038 461.264 107.748C461.264 108.986 460.99 110.115 460.442 111.134C459.905 112.154 459.149 113.009 458.173 113.699C457.198 114.379 456.058 114.85 454.754 115.113V115.442C456.2 115.497 457.516 115.864 458.699 116.543C459.883 117.212 460.826 118.138 461.527 119.322C462.229 120.494 462.579 121.875 462.579 123.465C462.579 125.306 462.097 126.944 461.133 128.38C460.179 129.816 458.82 130.945 457.055 131.767C455.291 132.589 453.186 133 450.742 133H434.894ZM444.035 125.7H448.309C449.844 125.7 450.994 125.416 451.762 124.846C452.529 124.265 452.912 123.41 452.912 122.281C452.912 121.492 452.732 120.823 452.37 120.275C452.008 119.727 451.493 119.311 450.824 119.026C450.167 118.741 449.372 118.598 448.441 118.598H444.035V125.7ZM444.035 112.943H447.783C448.583 112.943 449.29 112.817 449.904 112.565C450.518 112.313 450.994 111.951 451.334 111.48C451.685 110.997 451.86 110.411 451.86 109.72C451.86 108.679 451.488 107.885 450.742 107.337C449.997 106.778 449.054 106.498 447.915 106.498H444.035V112.943ZM471.605 110.641H478.576C481.414 110.641 483.891 111.096 486.007 112.006C488.133 112.915 489.783 114.198 490.955 115.853C492.139 117.508 492.725 119.453 492.714 121.689C492.725 123.925 492.139 125.892 490.955 127.591C489.783 129.29 488.133 130.616 486.007 131.57C483.891 132.523 481.414 133 478.576 133H466.015V99.3302H475.156V125.832H478.576C479.683 125.832 480.609 125.651 481.354 125.289C482.11 124.928 482.68 124.429 483.064 123.793C483.459 123.158 483.65 122.434 483.639 121.623C483.65 120.472 483.223 119.519 482.357 118.763C481.491 117.995 480.231 117.612 478.576 117.612H471.605V110.641ZM497.918 133V99.3302H522.184V106.695H507.059V112.482H520.934V119.848H507.059V125.635H522.118V133H497.918ZM537.37 99.3302L536.516 122.478H529.019L528.164 99.3302H537.37ZM532.767 133.526C531.496 133.526 530.405 133.082 529.496 132.194C528.597 131.296 528.153 130.205 528.164 128.923C528.153 127.673 528.597 126.605 529.496 125.717C530.405 124.829 531.496 124.385 532.767 124.385C533.973 124.385 535.036 124.829 535.957 125.717C536.888 126.605 537.36 127.673 537.37 128.923C537.36 129.778 537.135 130.556 536.696 131.257C536.269 131.948 535.71 132.501 535.02 132.918C534.329 133.323 533.578 133.526 532.767 133.526Z" fill="white"/>
<path d="M186.128 160.554C184.906 160.554 183.854 160.266 182.971 159.689C182.089 159.112 181.41 158.317 180.935 157.304C180.459 156.292 180.222 155.135 180.222 153.834C180.222 152.51 180.465 151.342 180.952 150.329C181.444 149.311 182.128 148.516 183.005 147.945C183.888 147.368 184.917 147.079 186.094 147.079C187.01 147.079 187.836 147.249 188.571 147.589C189.307 147.928 189.909 148.403 190.379 149.014C190.848 149.625 191.14 150.338 191.253 151.152H189.25C189.098 150.558 188.758 150.032 188.232 149.574C187.712 149.11 187.01 148.878 186.128 148.878C185.347 148.878 184.663 149.082 184.074 149.489C183.492 149.891 183.036 150.459 182.708 151.195C182.386 151.925 182.224 152.782 182.224 153.766C182.224 154.773 182.383 155.65 182.7 156.396C183.022 157.143 183.475 157.723 184.057 158.136C184.646 158.549 185.336 158.755 186.128 158.755C186.648 158.755 187.12 158.665 187.545 158.484C187.969 158.303 188.328 158.042 188.622 157.703C188.917 157.364 189.126 156.956 189.25 156.481H191.253C191.14 157.251 190.86 157.943 190.413 158.56C189.972 159.171 189.386 159.658 188.656 160.02C187.932 160.376 187.089 160.554 186.128 160.554ZM200.601 160.554C199.345 160.554 198.261 160.277 197.351 159.723C196.446 159.163 195.747 158.382 195.255 157.381C194.768 156.374 194.525 155.203 194.525 153.868C194.525 152.533 194.768 151.356 195.255 150.338C195.747 149.314 196.431 148.516 197.308 147.945C198.191 147.368 199.22 147.079 200.397 147.079C201.076 147.079 201.746 147.193 202.408 147.419C203.07 147.645 203.672 148.013 204.215 148.522C204.758 149.025 205.191 149.693 205.514 150.524C205.836 151.356 205.997 152.38 205.997 153.596V154.445H195.951V152.714H203.961C203.961 151.978 203.814 151.322 203.52 150.745C203.231 150.168 202.818 149.713 202.281 149.379C201.749 149.045 201.121 148.878 200.397 148.878C199.599 148.878 198.909 149.076 198.327 149.472C197.75 149.863 197.305 150.372 196.994 151C196.683 151.628 196.528 152.301 196.528 153.019V154.173C196.528 155.157 196.697 155.992 197.037 156.676C197.382 157.355 197.86 157.873 198.471 158.229C199.082 158.58 199.792 158.755 200.601 158.755C201.127 158.755 201.602 158.682 202.026 158.535C202.456 158.382 202.827 158.156 203.138 157.856C203.449 157.55 203.689 157.171 203.859 156.719L205.794 157.262C205.59 157.918 205.248 158.495 204.767 158.993C204.286 159.485 203.692 159.87 202.985 160.147C202.278 160.418 201.483 160.554 200.601 160.554ZM209.999 165.17V147.249H211.934V149.32H212.172C212.319 149.093 212.522 148.805 212.782 148.454C213.048 148.098 213.427 147.781 213.92 147.504C214.417 147.221 215.09 147.079 215.939 147.079C217.036 147.079 218.004 147.354 218.841 147.902C219.678 148.451 220.332 149.229 220.801 150.236C221.271 151.243 221.505 152.431 221.505 153.8C221.505 155.18 221.271 156.377 220.801 157.389C220.332 158.396 219.681 159.177 218.85 159.731C218.018 160.28 217.059 160.554 215.973 160.554C215.136 160.554 214.465 160.416 213.962 160.138C213.458 159.855 213.071 159.536 212.799 159.179C212.528 158.817 212.319 158.518 212.172 158.28H212.002V165.17H209.999ZM211.968 153.766C211.968 154.75 212.112 155.618 212.401 156.371C212.689 157.118 213.111 157.703 213.665 158.127C214.219 158.546 214.898 158.755 215.701 158.755C216.539 158.755 217.237 158.535 217.797 158.093C218.363 157.646 218.787 157.047 219.07 156.294C219.359 155.536 219.503 154.694 219.503 153.766C219.503 152.849 219.361 152.024 219.079 151.288C218.801 150.547 218.38 149.962 217.814 149.532C217.254 149.096 216.55 148.878 215.701 148.878C214.887 148.878 214.202 149.085 213.648 149.498C213.094 149.905 212.675 150.476 212.392 151.212C212.109 151.942 211.968 152.793 211.968 153.766ZM225.516 160.283V147.249H230.845C232.248 147.249 233.362 147.566 234.188 148.199C235.014 148.833 235.427 149.67 235.427 150.711C235.427 151.503 235.192 152.117 234.723 152.552C234.253 152.982 233.651 153.274 232.915 153.426C233.396 153.494 233.863 153.664 234.315 153.936C234.773 154.207 235.152 154.58 235.452 155.056C235.752 155.525 235.902 156.102 235.902 156.787C235.902 157.454 235.732 158.051 235.393 158.577C235.053 159.103 234.567 159.519 233.933 159.824C233.3 160.13 232.542 160.283 231.659 160.283H225.516ZM227.417 158.45H231.659C232.349 158.45 232.89 158.286 233.28 157.958C233.67 157.63 233.865 157.183 233.865 156.617C233.865 155.944 233.67 155.415 233.28 155.03C232.89 154.64 232.349 154.445 231.659 154.445H227.417V158.45ZM227.417 152.714H230.845C231.382 152.714 231.843 152.64 232.228 152.493C232.612 152.34 232.907 152.125 233.11 151.848C233.32 151.565 233.424 151.232 233.424 150.847C233.424 150.298 233.195 149.868 232.737 149.557C232.279 149.24 231.648 149.082 230.845 149.082H227.417V152.714ZM241.892 157.33L248.171 147.249H250.479V160.283H248.476V150.202L242.231 160.283H239.889V147.249H241.892V157.33ZM260.397 160.554C259.175 160.554 258.123 160.266 257.241 159.689C256.358 159.112 255.679 158.317 255.204 157.304C254.729 156.292 254.491 155.135 254.491 153.834C254.491 152.51 254.735 151.342 255.221 150.329C255.713 149.311 256.398 148.516 257.275 147.945C258.157 147.368 259.187 147.079 260.363 147.079C261.28 147.079 262.106 147.249 262.841 147.589C263.576 147.928 264.179 148.403 264.648 149.014C265.118 149.625 265.409 150.338 265.522 151.152H263.52C263.367 150.558 263.028 150.032 262.502 149.574C261.981 149.11 261.28 148.878 260.397 148.878C259.617 148.878 258.932 149.082 258.344 149.489C257.761 149.891 257.306 150.459 256.978 151.195C256.655 151.925 256.494 152.782 256.494 153.766C256.494 154.773 256.652 155.65 256.969 156.396C257.292 157.143 257.744 157.723 258.327 158.136C258.915 158.549 259.605 158.755 260.397 158.755C260.918 158.755 261.39 158.665 261.814 158.484C262.239 158.303 262.598 158.042 262.892 157.703C263.186 157.364 263.395 156.956 263.52 156.481H265.522C265.409 157.251 265.129 157.943 264.682 158.56C264.241 159.171 263.656 159.658 262.926 160.02C262.202 160.376 261.359 160.554 260.397 160.554ZM282.377 160.554C281.2 160.554 280.168 160.274 279.28 159.714C278.397 159.154 277.707 158.371 277.209 157.364C276.717 156.357 276.471 155.18 276.471 153.834C276.471 152.476 276.717 151.291 277.209 150.278C277.707 149.266 278.397 148.479 279.28 147.919C280.168 147.359 281.2 147.079 282.377 147.079C283.553 147.079 284.583 147.359 285.465 147.919C286.353 148.479 287.044 149.266 287.536 150.278C288.034 151.291 288.282 152.476 288.282 153.834C288.282 155.18 288.034 156.357 287.536 157.364C287.044 158.371 286.353 159.154 285.465 159.714C284.583 160.274 283.553 160.554 282.377 160.554ZM282.377 158.755C283.27 158.755 284.006 158.526 284.583 158.068C285.16 157.61 285.587 157.007 285.864 156.261C286.141 155.514 286.28 154.705 286.28 153.834C286.28 152.963 286.141 152.151 285.864 151.398C285.587 150.646 285.16 150.038 284.583 149.574C284.006 149.11 283.27 148.878 282.377 148.878C281.483 148.878 280.747 149.11 280.17 149.574C279.593 150.038 279.166 150.646 278.889 151.398C278.612 152.151 278.473 152.963 278.473 153.834C278.473 154.705 278.612 155.514 278.889 156.261C279.166 157.007 279.593 157.61 280.17 158.068C280.747 158.526 281.483 158.755 282.377 158.755ZM301.018 152.849V154.716H293.822V152.849H301.018ZM294.298 147.249V160.283H292.295V147.249H294.298ZM302.545 147.249V160.283H300.543V147.249H302.545ZM306.004 160.283V158.416H306.479C306.87 158.416 307.195 158.339 307.455 158.187C307.716 158.028 307.925 157.754 308.083 157.364C308.247 156.968 308.372 156.419 308.457 155.717C308.547 155.01 308.612 154.111 308.652 153.019L308.889 147.249H317.578V160.283H315.576V149.116H310.79L310.586 153.766C310.541 154.835 310.445 155.777 310.298 156.591C310.156 157.4 309.939 158.079 309.645 158.628C309.356 159.177 308.971 159.59 308.491 159.867C308.01 160.144 307.407 160.283 306.683 160.283H306.004ZM326.044 160.588C325.218 160.588 324.468 160.433 323.795 160.121C323.122 159.805 322.587 159.349 322.191 158.755C321.795 158.156 321.597 157.432 321.597 156.583C321.597 155.836 321.744 155.231 322.039 154.767C322.333 154.298 322.726 153.93 323.218 153.664C323.71 153.398 324.253 153.2 324.847 153.07C325.447 152.934 326.049 152.827 326.655 152.748C327.447 152.646 328.089 152.569 328.581 152.519C329.079 152.462 329.441 152.369 329.667 152.238C329.899 152.108 330.015 151.882 330.015 151.56V151.492C330.015 150.655 329.786 150.004 329.327 149.54C328.875 149.076 328.188 148.844 327.266 148.844C326.309 148.844 325.56 149.054 325.017 149.472C324.474 149.891 324.092 150.338 323.871 150.813L321.971 150.134C322.31 149.342 322.763 148.726 323.328 148.284C323.9 147.837 324.522 147.526 325.195 147.351C325.874 147.17 326.541 147.079 327.198 147.079C327.616 147.079 328.097 147.13 328.64 147.232C329.189 147.328 329.718 147.529 330.227 147.835C330.742 148.14 331.169 148.601 331.508 149.218C331.848 149.834 332.017 150.66 332.017 151.695V160.283H330.015V158.518H329.913C329.777 158.8 329.551 159.103 329.234 159.426C328.917 159.748 328.496 160.022 327.97 160.249C327.444 160.475 326.802 160.588 326.044 160.588ZM326.349 158.789C327.141 158.789 327.809 158.634 328.352 158.322C328.9 158.011 329.313 157.61 329.59 157.118C329.873 156.625 330.015 156.108 330.015 155.565V153.732C329.93 153.834 329.743 153.927 329.455 154.012C329.172 154.091 328.844 154.162 328.47 154.224C328.103 154.281 327.744 154.332 327.393 154.377C327.048 154.416 326.768 154.45 326.553 154.479C326.032 154.547 325.546 154.657 325.093 154.81C324.646 154.957 324.284 155.18 324.007 155.48C323.736 155.774 323.6 156.176 323.6 156.685C323.6 157.381 323.857 157.907 324.372 158.263C324.892 158.614 325.551 158.789 326.349 158.789ZM338.631 157.33L344.91 147.249H347.218V160.283H345.215V150.202L338.97 160.283H336.628V147.249H338.631V157.33ZM343.586 142.905H345.453C345.453 143.821 345.136 144.571 344.503 145.153C343.869 145.736 343.009 146.027 341.923 146.027C340.854 146.027 340.002 145.736 339.369 145.153C338.741 144.571 338.427 143.821 338.427 142.905H340.294C340.294 143.346 340.415 143.733 340.659 144.067C340.908 144.401 341.329 144.568 341.923 144.568C342.517 144.568 342.941 144.401 343.196 144.067C343.456 143.733 343.586 143.346 343.586 142.905ZM360.564 152.849V154.716H353.369V152.849H360.564ZM353.844 147.249V160.283H351.841V147.249H353.844ZM362.092 147.249V160.283H360.089V147.249H362.092ZM374.381 160.283V147.249H376.383V152.917H377.707L382.391 147.249H384.971L379.71 153.528L385.038 160.283H382.459L378.182 154.784H376.383V160.283H374.381ZM392.929 160.554C391.752 160.554 390.72 160.274 389.832 159.714C388.949 159.154 388.259 158.371 387.761 157.364C387.269 156.357 387.023 155.18 387.023 153.834C387.023 152.476 387.269 151.291 387.761 150.278C388.259 149.266 388.949 148.479 389.832 147.919C390.72 147.359 391.752 147.079 392.929 147.079C394.105 147.079 395.135 147.359 396.017 147.919C396.906 148.479 397.596 149.266 398.088 150.278C398.586 151.291 398.835 152.476 398.835 153.834C398.835 155.18 398.586 156.357 398.088 157.364C397.596 158.371 396.906 159.154 396.017 159.714C395.135 160.274 394.105 160.554 392.929 160.554ZM392.929 158.755C393.823 158.755 394.558 158.526 395.135 158.068C395.712 157.61 396.139 157.007 396.416 156.261C396.693 155.514 396.832 154.705 396.832 153.834C396.832 152.963 396.693 152.151 396.416 151.398C396.139 150.646 395.712 150.038 395.135 149.574C394.558 149.11 393.823 148.878 392.929 148.878C392.035 148.878 391.3 149.11 390.723 149.574C390.146 150.038 389.719 150.646 389.441 151.398C389.164 152.151 389.026 152.963 389.026 153.834C389.026 154.705 389.164 155.514 389.441 156.261C389.719 157.007 390.146 157.61 390.723 158.068C391.3 158.526 392.035 158.755 392.929 158.755ZM411.57 152.849V154.716H404.375V152.849H411.57ZM404.85 147.249V160.283H402.847V147.249H404.85ZM413.098 147.249V160.283H411.095V147.249H413.098ZM423.005 160.554C421.783 160.554 420.731 160.266 419.849 159.689C418.966 159.112 418.288 158.317 417.812 157.304C417.337 156.292 417.1 155.135 417.1 153.834C417.1 152.51 417.343 151.342 417.829 150.329C418.321 149.311 419.006 148.516 419.883 147.945C420.765 147.368 421.795 147.079 422.971 147.079C423.888 147.079 424.714 147.249 425.449 147.589C426.185 147.928 426.787 148.403 427.257 149.014C427.726 149.625 428.017 150.338 428.13 151.152H426.128C425.975 150.558 425.636 150.032 425.11 149.574C424.589 149.11 423.888 148.878 423.005 148.878C422.225 148.878 421.54 149.082 420.952 149.489C420.369 149.891 419.914 150.459 419.586 151.195C419.263 151.925 419.102 152.782 419.102 153.766C419.102 154.773 419.26 155.65 419.577 156.396C419.9 157.143 420.352 157.723 420.935 158.136C421.523 158.549 422.213 158.755 423.005 158.755C423.526 158.755 423.998 158.665 424.422 158.484C424.847 158.303 425.206 158.042 425.5 157.703C425.794 157.364 426.004 156.956 426.128 156.481H428.13C428.017 157.251 427.737 157.943 427.29 158.56C426.849 159.171 426.264 159.658 425.534 160.02C424.81 160.376 423.967 160.554 423.005 160.554ZM433.303 165.17C432.964 165.17 432.661 165.142 432.396 165.085C432.13 165.034 431.946 164.983 431.844 164.933L432.353 163.168C432.84 163.292 433.27 163.337 433.643 163.303C434.016 163.269 434.347 163.103 434.636 162.803C434.93 162.509 435.199 162.031 435.442 161.369L435.815 160.35L430.995 147.249H433.168L436.766 157.635H436.901L440.499 147.249H442.671L437.139 162.183C436.89 162.856 436.582 163.414 436.214 163.855C435.846 164.302 435.419 164.633 434.933 164.848C434.452 165.063 433.909 165.17 433.303 165.17ZM444.02 160.283V158.416H444.495C444.885 158.416 445.21 158.339 445.471 158.187C445.731 158.028 445.94 157.754 446.098 157.364C446.262 156.968 446.387 156.419 446.472 155.717C446.562 155.01 446.627 154.111 446.667 153.019L446.905 147.249H455.594V160.283H453.591V149.116H448.805L448.602 153.766C448.556 154.835 448.46 155.777 448.313 156.591C448.172 157.4 447.954 158.079 447.66 158.628C447.371 159.177 446.987 159.59 446.506 159.867C446.025 160.144 445.422 160.283 444.698 160.283H444.02ZM461.954 151.967H465.688C467.215 151.967 468.384 152.354 469.192 153.129C470.001 153.904 470.406 154.886 470.406 156.074C470.406 156.855 470.225 157.564 469.863 158.204C469.501 158.837 468.969 159.344 468.268 159.723C467.566 160.096 466.706 160.283 465.688 160.283H460.223V147.249H462.226V158.416H465.688C466.48 158.416 467.131 158.207 467.64 157.788C468.149 157.369 468.403 156.832 468.403 156.176C468.403 155.486 468.149 154.923 467.64 154.487C467.131 154.052 466.48 153.834 465.688 153.834H461.954V151.967ZM472.31 149.116V147.249H482.9V149.116H478.623V160.283H476.62V149.116H472.31ZM489.935 160.588C489.109 160.588 488.36 160.433 487.686 160.121C487.013 159.805 486.479 159.349 486.083 158.755C485.687 158.156 485.489 157.432 485.489 156.583C485.489 155.836 485.636 155.231 485.93 154.767C486.224 154.298 486.617 153.93 487.109 153.664C487.602 153.398 488.145 153.2 488.739 153.07C489.338 152.934 489.941 152.827 490.546 152.748C491.338 152.646 491.98 152.569 492.472 152.519C492.97 152.462 493.332 152.369 493.558 152.238C493.79 152.108 493.906 151.882 493.906 151.56V151.492C493.906 150.655 493.677 150.004 493.219 149.54C492.766 149.076 492.079 148.844 491.157 148.844C490.201 148.844 489.451 149.054 488.908 149.472C488.365 149.891 487.983 150.338 487.763 150.813L485.862 150.134C486.202 149.342 486.654 148.726 487.22 148.284C487.791 147.837 488.413 147.526 489.087 147.351C489.765 147.17 490.433 147.079 491.089 147.079C491.508 147.079 491.989 147.13 492.532 147.232C493.08 147.328 493.609 147.529 494.118 147.835C494.633 148.14 495.06 148.601 495.4 149.218C495.739 149.834 495.909 150.66 495.909 151.695V160.283H493.906V158.518H493.804C493.669 158.8 493.442 159.103 493.126 159.426C492.809 159.748 492.387 160.022 491.861 160.249C491.335 160.475 490.693 160.588 489.935 160.588ZM490.241 158.789C491.033 158.789 491.7 158.634 492.243 158.322C492.792 158.011 493.205 157.61 493.482 157.118C493.765 156.625 493.906 156.108 493.906 155.565V153.732C493.821 153.834 493.635 153.927 493.346 154.012C493.063 154.091 492.735 154.162 492.362 154.224C491.994 154.281 491.635 154.332 491.284 154.377C490.939 154.416 490.659 154.45 490.444 154.479C489.924 154.547 489.437 154.657 488.985 154.81C488.538 154.957 488.176 155.18 487.899 155.48C487.627 155.774 487.491 156.176 487.491 156.685C487.491 157.381 487.749 157.907 488.263 158.263C488.784 158.614 489.443 158.789 490.241 158.789ZM510.77 147.249V158.416H512.603V164.491H510.6V160.283H500.52V147.249H502.522V158.416H508.767V147.249H510.77ZM518.645 157.33L524.925 147.249H527.233V160.283H525.23V150.202L518.985 160.283H516.643V147.249H518.645V157.33ZM533.859 157.33L540.138 147.249H542.446V160.283H540.443V150.202L534.198 160.283H531.856V147.249H533.859V157.33ZM538.814 142.905H540.681C540.681 143.821 540.364 144.571 539.731 145.153C539.097 145.736 538.237 146.027 537.151 146.027C536.082 146.027 535.231 145.736 534.597 145.153C533.969 144.571 533.655 143.821 533.655 142.905H535.522C535.522 143.346 535.644 143.733 535.887 144.067C536.136 144.401 536.557 144.568 537.151 144.568C537.745 144.568 538.169 144.401 538.424 144.067C538.684 143.733 538.814 143.346 538.814 142.905Z" fill="white"/>
<path fill-rule="evenodd" clip-rule="evenodd" d="M0 69.4792V75.373C1.16052 77.4476 1.88144 80.8188 3.38777 83.6242C4.65379 85.9994 6.29493 88.0032 7.85401 90.9147C15.456 105.107 22.3195 126.1 27.6531 141.689C42.1245 183.941 90.7666 204.646 124.041 171.836C134.304 161.71 136.959 154.85 138.875 135.955C140.546 119.535 146.624 90.1191 154.208 75.6618L163 59.1593V57.0022C160.784 55.7881 156.312 49.5997 146.12 51.6448C139.456 52.9827 135.218 56.012 132.662 61.1691C123.894 78.9092 125.488 81.7971 123.742 98.1935C122.47 110.14 115.313 120.961 111.673 132.23C108.28 142.715 107.149 149.675 104.91 159.765C104.101 163.413 102.5 165.942 98.4447 164.681C94.3895 163.419 98.222 138.825 97.4952 130.397C97.5187 130.609 88.8792 168.264 83.2466 171.806C79.0207 174.464 77.1334 169.938 77.0689 165.942C76.8814 154.06 83.0532 135.907 83.5104 129.566C80.4274 133.627 66.7767 167.203 59.1512 170.121C52.997 172.472 54.3333 163.679 55.3825 160.172C57.135 154.331 70 127 70.2348 126.489C70.5505 125.803 69.9886 125.482 67.5034 129.324L58.3658 142.155C44.5627 160.296 35.8002 158.091 44.0528 142.615C46.1452 138.701 48.3784 135.147 50.6232 131.293C52.9735 127.261 55.6287 126.366 61.443 124.256C63.723 123.425 65.9737 122.823 68.2771 122.358C76.0725 121.698 81.7403 122.629 89.6647 123.195C91.9388 123.36 94.4415 123.678 96.4636 124.315C105.584 126.713 101.422 119.57 98.7964 118.167C95.8717 116.606 92.4956 117.378 89.8639 115.863C90.1687 115.38 103.614 109.15 110.255 104.901C113.537 102.796 111.55 100.18 109.763 100.398C108.127 100.598 103.556 102.726 100.391 103.398C98.351 103.828 97.4132 103.185 99.4177 102.001C102.307 100.292 106.551 98.1699 110.015 96.5256C116.216 93.5846 114.311 89.8598 108.778 91.5218C104.206 92.8951 98.7085 95.0875 94.9866 96.7614C91.6457 98.2525 92.4018 97.8458 94.717 96.0069L102.911 89.8892C107.946 86.023 105.238 83.4415 100.344 85.8462C96.8564 87.5612 93.5155 89.4826 90.8721 91.3156C88.5334 92.9304 87.9883 91.8459 89.6412 89.8538C89.8522 89.6004 93.5213 86.8186 94.7873 84.5849C95.6724 83.0172 95.1859 81.4612 92.308 82.3511C88.8968 83.4061 84.2665 87.461 79.9233 91.0798C73.2416 96.6494 66.384 102.024 63.0255 103.681C60.7396 104.806 57.5336 106.468 54.855 107.24C42.1127 110.9 34.6338 101.465 51.8833 94.0267C64.2798 88.681 59.5146 79.5693 87.2967 70.6639C86.7751 68.1119 84.9053 64.1454 83.9558 61.5699C82.7836 58.3814 81.7637 55.3048 80.656 52.022C78.4756 45.5684 76.5004 39.2857 74.2731 32.8674C72.1279 26.6966 69.8596 20.5672 67.0873 14.9622C61.654 3.98809 56.3705 1.50009 55.4352 0.999968C54.5 0.49985 51.8478 0.500171 50.4239 0.999968C49 1.49977 45.7936 2.80346 44.5862 7.41825C40.9288 21.4453 57.1233 63.5855 58.5534 77.9014C56.7188 75.4142 53.2197 66.7917 51.6196 63.338C47.3175 54.0377 33.573 24.3215 21.1589 30.9814C8.86213 37.5706 34.5635 85.9522 37.4824 93.0954C30.6189 85.4394 19.5999 71.3652 10.8725 66.3909C3.07127 61.9471 1.92833 66.1257 0 69.4792Z" fill="url(#paint0_linear_101_2)"/>
<defs>
<linearGradient id="paint0_linear_101_2" x1="81.5" y1="1" x2="81.5" y2="188" gradientUnits="userSpaceOnUse">
<stop stop-color="#04BDF7"/>
<stop offset="1" stop-color="#04A0F8"/>
</linearGradient>
</defs>
</svg>
